<svg xmlns="http://www.w3.org/2000/svg" width="94" height="108" viewBox="0 0 47 54"><g><g opacity=".6"><path fill="#fff" d="M39.087 7.161l-.002-.006a4.406 4.406 0 0 0-.397-1.08c-.062-.111-.125-.212-.185-.309l-.014-.022a4.37 4.37 0 0 0-1.064-1.061l-.012-.008a8.643 8.643 0 0 0-.319-.191l-.008-.005a4.42 4.42 0 0 0-1.082-.393 4.08 4.08 0 0 0-.8-.08H16.986c.05-.156.118-.307.205-.448l.005-.008a2.176 2.176 0 0 1 1.9-1.101H42.58a2.221 2.221 0 0 1 2.212 2.206v39.458a2.221 2.221 0 0 1-2.212 2.207h-3.414V7.967c0-.27-.026-.541-.08-.806zm-7.21 42.47V31.324l.007-.316-.012.003V11.19c0-.265-.027-.531-.081-.797a4.284 4.284 0 0 0-.398-1.062 5.851 5.851 0 0 0-.175-.289l-.022-.033a3.45 3.45 0 0 0-.49-.572 3.515 3.515 0 0 0-.594-.484 8.73 8.73 0 0 0-.319-.188l-.007-.004a4.472 4.472 0 0 0-1.083-.387 4.174 4.174 0 0 0-.804-.077H9.608c.05-.15.116-.293.199-.429l.005-.007a2.176 2.176 0 0 1 1.891-1.102h23.492a2.221 2.221 0 0 1 2.212 2.206v39.458a2.221 2.221 0 0 1-2.212 2.207zm-1.756-17.466v17.794c0 .38-.106.75-.307 1.072l-.004.007a2.187 2.187 0 0 1-1.886 1.082H4.405a2.2 2.2 0 0 1-2.195-2.163V11.194a2.201 2.201 0 0 1 2.196-2.166H27.922a2.2 2.2 0 0 1 2.195 2.162v20.975zM46.47 3.85v-.006a4.413 4.413 0 0 0-.398-1.08c-.061-.11-.123-.209-.182-.305l-.017-.026a4.372 4.372 0 0 0-1.064-1.062l-.012-.008a8.49 8.49 0 0 0-.319-.19l-.008-.005A4.426 4.426 0 0 0 43.39.776a4.082 4.082 0 0 0-.8-.08H19.1c-.27.001-.54.026-.809.08-.376.082-.74.214-1.086.397-.103.058-.205.12-.321.193l-.008.005a4.06 4.06 0 0 0-1.523 1.965c-.077.219-.134.443-.172.67h-3.47c-.269 0-.538.027-.805.08-.376.082-.74.215-1.086.397a6.774 6.774 0 0 0-.321.193l-.009.005a4.06 4.06 0 0 0-1.522 1.965c-.075.213-.131.43-.17.65H4.423c-.269.002-.54.026-.809.079a4.29 4.29 0 0 0-1.085.39c-.11.06-.21.121-.325.192a3.462 3.462 0 0 0-.587.479 3.84 3.84 0 0 0-1.167 2.755v38.766a3.838 3.838 0 0 0 1.165 2.754c.18.176.376.337.585.478l.044.027c.09.055.182.112.29.17.342.177.705.308 1.084.388.265.052.537.077.804.078h23.492c.266 0 .534-.026.802-.079a4.47 4.47 0 0 0 1.083-.39c.103-.057.205-.117.321-.189l.013-.008a5.34 5.34 0 0 0 .575-.47c.185-.174.352-.368.5-.584l.004-.008c.061-.096.124-.195.19-.31.075-.14.142-.284.202-.43h3.6c.268 0 .537-.028.806-.081a4.432 4.432 0 0 0 1.084-.397c.104-.058.206-.119.322-.192l.01-.007a4.37 4.37 0 0 0 1.064-1.062l.027-.042c.056-.09.114-.184.176-.295.177-.339.31-.7.395-1.08a4.09 4.09 0 0 0 .027-.155h3.473c.269 0 .538-.027.807-.08a4.434 4.434 0 0 0 1.085-.397c.102-.058.204-.119.32-.192l.01-.007c.415-.291.773-.648 1.065-1.062l.028-.045c.056-.09.114-.182.175-.292.177-.34.31-.7.395-1.08.053-.264.08-.534.08-.803V4.657c0-.27-.027-.541-.08-.806z"/></g></g></svg>