<svg xmlns="http://www.w3.org/2000/svg" width="56" height="63" viewBox="0 0 56 63"><g><g><g><path fill="none" stroke="#b3b3b3" stroke-linecap="round" stroke-linejoin="round" stroke-miterlimit="20" stroke-width="3" d="M37.533 2v0l9.697 9.697v0l-29.09 29.09v0L3.593 45.636v0L8.443 31.09v0z"/></g><g><path fill="none" stroke="#b3b3b3" stroke-linecap="round" stroke-linejoin="round" stroke-miterlimit="20" stroke-width="2.5" d="M2 55.683c2.829-.317 5.557-.352 8.385-.352 1.205 0 2.293 1.868 3.42 1.217.555-.32 1.053-1.062 1.64-.934.239.052.453.248.684.362.787.387 1.638-.234 2.275-1.038.639-.804 1.177-1.813 1.902-2.42.725-.607 1.748-.674 2.277.296.192.352.301.805.525 1.108.692.936 1.727-.179 2.645-.324.698-.11 1.37.382 2.06.577.69.194 1.56-.073 1.8-1.083.467.763 1.288.77 1.9.31.613-.462 1.069-1.287 1.515-2.078a84.235 84.235 0 0 1 2.589-4.283c.414-.642.988-1.328 1.534-.984.17.108.305.302.427.517 1.076 1.902 2.06 3.938 2.667 6.277.807 3.111 1.573 2.835.402 7.431-.147.574-.457 1.06-.854 1.16-.675.167-1.341-.435-1.75-1.262-.396-.799-.593-1.782-.764-2.75-.75-4.244-1.792-6.74-1.575-11.125.135-2.739.736-5.89 2.417-6.854.172-.099.362-.17.538-.085.35.17.456.835.502 1.393.098 1.18.176 2.363.236 3.55.104 2.08 1.909 2.801 2.623 1.023l.019-.047c-.101 2.957-1.899 5.885-2 8.842 5.367 3.368 5.805-4.34 5.367-5.01-.438-.672-4.848 1.608-5.467 1.541-.807-.087-2.248 1.576-3.477 3.01-1.011 1.18.072 3.604 1.132 2.531 3.253-3.292 12.852-1.54 16.406-2.415"/></g></g></g></svg>