<svg xmlns="http://www.w3.org/2000/svg" width="83" height="79" viewBox="0 0 83 79"><g><g><g><g><path fill="#b3b3b3" d="M7.21 74.97L3.96 28.58l71.74-5.03 3.26 46.39zm71.95-55.21L0 25.32l3.75 53.43 79.16-5.55z"/></g><g><g><g><path fill="#b3b3b3" d="M72.18 61.37l-.21.06-.2.07-.2.07-.19.08-.36.16-.16.09-.17.1-.15.1-.15.1-.28.22-.13.12-.12.12-.22.26-.1.14-.1.14-.1.15-.08.16-.08.16-.08.16-.14.36-.06.18-.05.19-.05.2-.04.2-.04.21c-.01.07-.03.15-.04.22l-.03.22-2.02.15v.01l-11.95.83-11.95.84-11.95.84-11.94.84h-.01l-2.02.14-.06-.21-.06-.22-.07-.2-.07-.2-.08-.18-.08-.19-.08-.17-.09-.17-.1-.16-.1-.16-.1-.14-.11-.15-.11-.13-.12-.13-.12-.12-.13-.12-.13-.11-.14-.1-.15-.1-.14-.09-.16-.09-.16-.08-.34-.14-.18-.07-.19-.06-.19-.05-.2-.05-.2-.05-.21-.04-.22-.03-.23-.03-.14-2.03h.01l-.85-12.13-.86-12.11v-.02l-.14-2.01.22-.06.21-.07.4-.14.19-.08.36-.16.16-.09.17-.1.15-.1.15-.1.14-.11.14-.11.13-.12.12-.12.12-.13.11-.13.1-.14.1-.14.09-.15.09-.16.08-.16.07-.16.07-.18.07-.17.06-.19.05-.19.05-.2.05-.2.03-.21c.02-.07.03-.15.04-.22l.03-.22 2.02-.15 11.95-.84 11.95-.84 11.95-.84 11.94-.84h.01l2.02-.14.06.22.06.21.14.4.08.19.08.18.09.17.09.17.1.16.09.16.1.14.11.15.11.13.12.13.13.12.12.12.14.11.13.1.15.1.15.09.15.09.16.08.17.07.18.08.17.06.19.06.19.05.2.05.2.05.22.04.21.03.23.03.14 2.03.85 12.13.85 12.12v.01l.14 2.01zm3.06-2.29v-.01l-1.7-24.24v-.01l-.32-4.49-.13.05-.13.04-.14.05-.13.03-.15.03-.14.03-.14.02-.15.01h-.37l-.18-.01-.18-.02-.17-.02-.18-.04-.17-.04-.17-.06-.16-.06-.16-.07-.16-.07-.15-.08-.15-.09-.14-.1-.14-.1-.14-.11-.12-.12-.13-.12-.11-.13-.11-.14-.1-.14-.1-.14-.09-.15-.08-.15-.08-.16-.07-.17-.06-.17-.05-.16-.08-.36-.03-.18-.01-.18-.01-.15v-.29l.01-.15.01-.14.02-.14.06-.28-4.49.32h-.01l-11.94.84-11.95.84-11.95.84-11.94.84v-.01l-4.5.32.1.26.04.14.03.13.03.15.03.14.02.14.01.15.01.19v.18l-.01.18-.02.18-.03.18-.04.17-.04.17-.06.17-.06.17-.07.16-.07.15-.08.16-.09.14-.1.15-.1.13-.11.14-.12.13-.12.12-.13.11-.14.11-.14.1-.14.1-.15.09-.15.09-.16.07-.17.07-.16.06-.17.06-.18.04-.17.03-.19.03-.18.02-.15.01h-.29l-.14-.01-.14-.02-.15-.02-.13-.02-.14-.04.31 4.49v.01l.86 12.12.85 12.13h-.01l.32 4.5.26-.1.14-.04.14-.04.14-.03.14-.02.15-.02.14-.01.19-.01h.18l.18.01.36.04.17.04.17.05.17.05.17.06.16.07.15.07.15.08.15.1.15.1.13.1.14.11.13.11.12.13.11.12.11.14.1.14.1.14.18.3.07.16.07.17.06.17.05.16.05.18.06.36.02.18.01.15v.29l-.01.15-.02.14-.02.14-.06.28 4.49-.32h.01l11.94-.84 11.95-.84 11.95-.84 11.94-.83h.01l4.49-.32-.05-.12-.04-.14-.04-.13-.04-.14-.03-.14-.03-.15-.02-.14-.01-.15-.01-.19v-.18l.01-.18.02-.18.03-.17.04-.18.04-.17.06-.17.06-.16.07-.16.07-.16.08-.15.09-.15.2-.28.11-.14.12-.12.12-.13.13-.11.14-.11.13-.1.15-.1.15-.09.15-.09.16-.07.17-.07.16-.06.17-.05.18-.05.17-.03.19-.03.18-.02.15-.01h.29l.14.01.15.02.14.02.13.02.14.04z"/></g></g></g><g><g transform="rotate(-4.012 55 62.5)"><path fill="#b3b3b3" d="M45.2 62.69v-.375h18.89v.374z"/></g></g><g><g transform="rotate(-4.012 54.5 60)"><path fill="#b3b3b3" d="M45.026 60.218v-.374h18.891v.374z"/></g></g></g><g><g><path fill="#b3b3b3" d="M54.95 20.57c-.18.15-.45.13-.6-.05L38.67 1.98a.99.99 0 0 1-.42.09c-.07 0-.14-.01-.21-.02l-12.8 20.82c-.08.12-.21.2-.36.2a.39.39 0 0 1-.23-.07.422.422 0 0 1-.14-.58L37.35 1.54a.976.976 0 0 1-.14-.51c0-.57.46-1.03 1.04-1.03.57 0 1.03.46 1.03 1.03 0 .1-.01.2-.04.29L55 19.97c.16.18.13.44-.05.6z"/></g></g></g></g></svg>