<svg xmlns="http://www.w3.org/2000/svg" width="81" height="84" viewBox="0 0 81 84"><g><g><g><path fill="#b3b3b3" d="M29.499 50.411v3.114l1.775-1.648v-3.114zm-16.895 17.25v-.002l-.01-.112-.137-1.308-.629.583a.433.433 0 0 0-.048.048l-.948.88.137 1.313.01.107.15 1.42 1.625-1.509zm37.89 6.643l-.89-8.512H36.479a5.207 5.207 0 0 1-5.205-5.205v-4.752l-1.775 1.656v3.096c0 3.849 3.131 6.98 6.98 6.98h11.525l.725 6.922c.094.91-.17 1.806-.748 2.518a3.41 3.41 0 0 1-2.307 1.25l-28.204 2.95a3.419 3.419 0 0 1-3.768-3.055l-.563-5.392-1.625 1.519.423 4.057a5.203 5.203 0 0 0 5.718 4.635l28.204-2.949a5.203 5.203 0 0 0 4.635-5.718zM10.9 18.361a5.205 5.205 0 0 0-4.635 5.72l4.158 39.77 1.626-1.52-4.02-38.434a3.411 3.411 0 0 1 .749-2.518 3.403 3.403 0 0 1 2.307-1.253L29.5 18.204v27.841l1.775-1.656V16.234z"/><path fill="none" stroke="#b3b3b3" stroke-miterlimit="20" d="M29.499 50.411v3.114l1.775-1.648v-3.114zm-16.895 17.25v-.002l-.01-.112-.137-1.308-.629.583a.433.433 0 0 0-.048.048l-.948.88.137 1.313.01.107.15 1.42 1.625-1.509zm37.89 6.643l-.89-8.512H36.479a5.207 5.207 0 0 1-5.205-5.205v-4.752l-1.775 1.656v3.096c0 3.849 3.131 6.98 6.98 6.98h11.525l.725 6.922c.094.91-.17 1.806-.748 2.518a3.41 3.41 0 0 1-2.307 1.25l-28.204 2.95a3.419 3.419 0 0 1-3.768-3.055l-.563-5.392-1.625 1.519.423 4.057a5.203 5.203 0 0 0 5.718 4.635l28.204-2.949a5.203 5.203 0 0 0 4.635-5.718zM10.9 18.361a5.205 5.205 0 0 0-4.635 5.72l4.158 39.77 1.626-1.52-4.02-38.434a3.411 3.411 0 0 1 .749-2.518 3.403 3.403 0 0 1 2.307-1.253L29.5 18.204v27.841l1.775-1.656V16.234z"/></g><g><path fill="#b3b3b3" d="M64.838.83a5.207 5.207 0 0 1 5.205 5.206v2.168l-1.775 1.655V6.036c0-1.892-1.539-3.431-3.43-3.431H36.479a3.435 3.435 0 0 0-3.43 3.43v36.696l-1.775 1.658V6.036A5.207 5.207 0 0 1 36.479.83h28.359zm-31.79 46.285v3.114l-1.774 1.648v-3.114l.999-.928zm36.995-27.466v40.938a5.207 5.207 0 0 1-5.205 5.205H36.479a5.207 5.207 0 0 1-5.205-5.205v-4.752l1.775-1.658v6.41c0 1.891 1.539 3.43 3.43 3.43h28.359c1.891 0 3.43-1.539 3.43-3.43V21.305zm0-6.891v3.113l-1.775 1.648v-3.113z"/><path fill="none" stroke="#b3b3b3" stroke-miterlimit="20" d="M64.838.83a5.207 5.207 0 0 1 5.205 5.206v2.168l-1.775 1.655V6.036c0-1.892-1.539-3.431-3.43-3.431H36.479a3.435 3.435 0 0 0-3.43 3.43v36.696l-1.775 1.658V6.036A5.207 5.207 0 0 1 36.479.83h28.359zm-31.79 46.285v3.114l-1.774 1.648v-3.114l.999-.928zm36.995-27.466v40.938a5.207 5.207 0 0 1-5.205 5.205H36.479a5.207 5.207 0 0 1-5.205-5.205v-4.752l1.775-1.658v6.41c0 1.891 1.539 3.43 3.43 3.43h28.359c1.891 0 3.43-1.539 3.43-3.43V21.305zm0-6.891v3.113l-1.775 1.648v-3.113z"/></g><g><g><path fill="#b3b3b3" d="M79.26 7.311l-9.217 8.56-1.775 1.648-35.22 32.71-3.55 3.296-16.07 14.925c-.015.015-.03.033-.048.048l-.626.583-1.626 1.509-7.776 7.221a1.144 1.144 0 0 1-1.613-.06 1.142 1.142 0 0 1 .06-1.613l9.033-8.388.948-.88a.436.436 0 0 1 .048-.048l.629-.583L29.499 50.41l1.775-1.648.999-.928.776-.72 35.22-32.71 1.774-1.647 7.665-7.12A1.142 1.142 0 0 1 79.26 7.31z"/><path fill="none" stroke="#b3b3b3" stroke-miterlimit="20" d="M79.26 7.311v0l-9.217 8.56v0l-1.775 1.648v0l-35.22 32.71v0l-3.55 3.296v0L13.429 68.45c-.015.015-.03.033-.048.048l-.626.583v0l-1.626 1.509v0L3.352 77.81a1.144 1.144 0 0 1-1.613-.06 1.142 1.142 0 0 1 .06-1.613l9.033-8.388v0l.948-.88a.436.436 0 0 1 .048-.048l.629-.583v0L29.499 50.41v0l1.775-1.648v0l.999-.928v0l.776-.72v0l35.22-32.71v0l1.774-1.647v0l7.665-7.12A1.142 1.142 0 0 1 79.26 7.31z"/></g></g><g><g><g><path fill="#b3b3b3" d="M79.26 7.311l-9.217 8.56-1.775 1.648-35.22 32.71-3.55 3.296-16.07 14.925c-.015.015-.03.033-.048.048l-.626.583-1.626 1.509-7.776 7.221a1.144 1.144 0 0 1-1.613-.06 1.142 1.142 0 0 1 .06-1.613l9.033-8.388.948-.88a.436.436 0 0 1 .048-.048l.629-.583L29.499 50.41l1.775-1.648.999-.928.776-.72 35.22-32.71 1.774-1.647 7.665-7.12A1.142 1.142 0 0 1 79.26 7.31z"/><path fill="none" stroke="#b3b3b3" stroke-miterlimit="20" d="M79.26 7.311v0l-9.217 8.56v0l-1.775 1.648v0l-35.22 32.71v0l-3.55 3.296v0L13.429 68.45c-.015.015-.03.033-.048.048l-.626.583v0l-1.626 1.509v0L3.352 77.81a1.144 1.144 0 0 1-1.613-.06 1.142 1.142 0 0 1 .06-1.613l9.033-8.388v0l.948-.88a.436.436 0 0 1 .048-.048l.629-.583v0L29.499 50.41v0l1.775-1.648v0l.999-.928v0l.776-.72v0l35.22-32.71v0l1.774-1.647v0l7.665-7.12A1.142 1.142 0 0 1 79.26 7.31z"/></g></g></g></g></g></svg>