<svg xmlns="http://www.w3.org/2000/svg" width="72" height="59" viewBox="0 0 72 59"><g><g><g><g><g><path fill="#b3b3b3" d="M45.412 7.91l-16.72 20.65-2.94 3.64v-7.52h3.02c.23-.01.46-.07.66-.18.2-.13.37-.29.49-.49.24-.41.24-.92 0-1.33-.12-.2-.29-.37-.49-.49-.2-.11-.43-.17-.66-.18h-3.02v-1.65h3.01c.24 0 .47-.06.67-.17.2-.13.36-.3.49-.49.24-.42.24-.92 0-1.34-.13-.19-.29-.36-.49-.49-.2-.11-.43-.17-.67-.17h-3.01v-1.68h3.01c.24-.01.47-.07.67-.18.2-.13.36-.29.49-.49.24-.41.24-.92 0-1.33-.13-.2-.29-.37-.49-.49-.2-.11-.43-.17-.67-.18h-3.01V8.87c0-3.5 2.74-6.99 6.08-8.31.9-.36 1.85-.56 2.79-.56h1.96c.94 0 1.89.2 2.79.56 3.04 1.2 5.6 4.18 6.04 7.35z"/></g><g/><g><path fill="#b3b3b3" d="M24.182 34.14l-2.28 2.81c-.12-.35-.21-.7-.29-1.06-.06-.25-.11-.5-.15-.76-.11-.58-.16-1.18-.16-1.77v-4.1c0-.24.06-.48.16-.7 0-.01.01-.02.01-.03.14-.21.32-.39.53-.53.22-.11.46-.17.7-.17.26 0 .51.06.74.17.21.14.38.32.52.53 0 .01.01.02.01.03.1.22.16.46.17.7v4.1c0 .26.01.52.04.78z"/></g></g></g><g><g><g><path fill="#b3b3b3" d="M62.615 17.236c.01 1.6-.26 3.19-.8 4.7-.56 1.53-1.42 2.94-2.53 4.13-.18.17-.39.29-.63.35-.23.08-.49.1-.73.04a1.79 1.79 0 0 1-.67-.35c-.17-.19-.29-.42-.35-.67-.08-.23-.09-.49-.03-.73.05-.24.18-.46.35-.63.85-.9 1.51-1.96 1.92-3.12.42-1.2.63-2.45.63-3.72.02-1.27-.21-2.53-.66-3.71a8.54 8.54 0 0 0-.77-1.58c-.31-.45-.66-.86-1.05-1.23-.18-.17-.32-.39-.39-.63-.08-.23-.09-.49-.03-.73.06-.25.18-.48.35-.67.04-.05.09-.09.14-.13.14-.12.3-.21.49-.25.22-.09.47-.1.7-.04.22.04.42.14.59.29.02.02.05.04.07.06.57.54 1.07 1.14 1.51 1.79.42.66.77 1.36 1.05 2.1.57 1.51.85 3.11.84 4.73z"/></g></g></g><g><g><g><path fill="#b3b3b3" d="M71.235 17.206c0 2.3-.39 4.59-1.15 6.76-.79 2.2-2.02 4.21-3.61 5.92-.17.19-.39.33-.63.39-.24.09-.5.11-.74.03-.24-.06-.45-.18-.63-.35a1.19 1.19 0 0 1-.39-.63 1.33 1.33 0 0 1-.03-.74c.07-.24.19-.47.35-.66 1.34-1.41 2.36-3.1 2.98-4.94.67-1.86 1.01-3.81 1.01-5.78.01-2-.34-3.99-1.05-5.86-.31-.87-.73-1.7-1.22-2.48a10.46 10.46 0 0 0-1.65-2.04c-.2-.15-.33-.38-.38-.63-.09-.23-.1-.49-.04-.73.06-.24.18-.46.35-.63.1-.12.22-.21.35-.28a.96.96 0 0 1 .28-.11c.24-.08.49-.09.74-.03.13.03.25.08.36.14.1.06.19.13.27.21.81.75 1.52 1.61 2.1 2.55.61.95 1.11 1.96 1.51 3.02.81 2.2 1.23 4.52 1.22 6.87z"/></g></g></g><g><g><g><path fill="#b3b3b3" d="M14.295 25.436c-.07.25-.2.48-.38.67-.18.17-.4.29-.63.35-.25.06-.5.05-.74-.04a1.2 1.2 0 0 1-.63-.35c-1.13-1.18-2-2.59-2.56-4.13-.53-1.51-.8-3.1-.81-4.7 0-1.62.28-3.22.85-4.73.29-.74.65-1.44 1.08-2.1.41-.66.91-1.26 1.47-1.79l.09-.06c.17-.13.37-.23.58-.29.24-.06.5-.05.74.04.16.05.31.13.45.25.06.03.12.08.18.13.17.18.28.42.31.67.08.24.06.5-.03.73-.06.25-.2.47-.39.63-.39.37-.75.78-1.05 1.23-.31.5-.57 1.03-.77 1.58-.45 1.18-.68 2.44-.67 3.71 0 1.27.22 2.52.63 3.72a9.023 9.023 0 0 0 1.93 3.12c.17.17.29.39.35.63.07.24.07.49 0 .73z"/></g></g></g><g><g><g><path fill="#b3b3b3" d="M7.145 28.596c.07.24.07.49 0 .73s-.2.46-.38.64c-.09.08-.19.15-.3.21-.1.06-.22.11-.33.14-.25.07-.51.06-.74-.04-.25-.05-.47-.19-.63-.38a16.175 16.175 0 0 1-3.61-5.93c-.28-.81-.52-1.63-.69-2.46a20.253 20.253 0 0 1 .73-11.17c.41-1.05.91-2.06 1.5-3.01.61-.93 1.31-1.79 2.1-2.56.1-.08.21-.16.32-.21h1.35c.14.07.26.16.37.28.17.17.28.39.31.63.07.24.07.49 0 .74-.06.24-.2.46-.38.63l-.3.3c-.52.53-.98 1.11-1.39 1.73-.48.79-.89 1.62-1.22 2.49a17.449 17.449 0 0 0-.04 11.63c.59 1.67 1.49 3.23 2.65 4.57.11.12.22.25.33.37.18.19.3.42.35.67z"/></g><g><path fill="#b3b3b3" d="M6.465 4.556h-1.35a1.333 1.333 0 0 1 1.09-.11c.09.03.18.06.26.11z"/></g></g></g><g><g><g><path fill="#b3b3b3" d="M49.932 30.07v3.29c0 .85-.11 1.7-.32 2.53a9.897 9.897 0 0 1-.84 2.41 14.2 14.2 0 0 1-2.94 4.17 14.998 14.998 0 0 1-4.17 2.98c-.77.35-1.57.63-2.39.84-.74.18-1.51.29-2.27.32v9.28h4.62c.24.01.48.07.7.18.21.14.39.32.53.53.1.21.16.45.17.7 0 .25-.06.5-.17.73-.14.21-.32.39-.53.53-.22.1-.46.16-.7.17h-12.05c-.24 0-.48-.06-.7-.17a1.91 1.91 0 0 1-.53-.53c-.12-.22-.18-.48-.17-.73a1.3 1.3 0 0 1 .17-.7c.14-.21.32-.39.53-.53.22-.11.46-.17.7-.17h4.59v-9.29c-.76-.04-1.51-.14-2.24-.32-.82-.21-1.62-.49-2.39-.84a14.8 14.8 0 0 1-2.84-1.8l.88-1.09.9-1.12c.52.42 1.08.8 1.67 1.12.19.1.39.2.59.3.59.29 1.21.51 1.85.67.61.14 1.23.21 1.86.21h2.31c.63 0 1.25-.07 1.86-.21a9.633 9.633 0 0 0 1.86-.67c.2-.09.4-.19.59-.3 1.02-.55 1.96-1.26 2.77-2.08.61-.62 1.16-1.3 1.63-2.03.28-.44.53-.9.75-1.37.28-.6.5-1.22.67-1.86.14-.61.21-1.23.21-1.86v-.17c0-.1-.04-.18-.04-.28v-3.65c0-.25.07-.49.19-.7.01-.01.01-.02.02-.03.13-.22.31-.4.53-.53.22-.11.46-.17.7-.17.24 0 .48.06.7.17.22.13.4.31.53.53.01.01.01.02.01.03.12.21.17.46.16.7v.81z"/></g><g/><g><path fill="#b3b3b3" d="M45.462 24.68v9c-.33 4.27-4.6 8.38-8.88 8.38h-1.96c-1.8 0-3.61-.73-5.11-1.9l9.39-11.6 3.17-3.91c.07.02.15.03.22.03z"/></g><g><path fill="#b3b3b3" d="M45.482 24.68v8.48c0 .17-.01.35-.02.52v-9z"/></g><g><path fill="#b3b3b3" d="M45.482 20.37v1.64h-1.27l1.25-1.55v-.09z"/></g><g><path fill="#b3b3b3" d="M55.225 5.036c-.08.21-.18.41-.33.59l-9.41 11.62-.02.03-.34.42-2.16 2.67-6.63 8.19-8.27 10.22-1.05 1.29-1.55 1.92-.26.31-3.74 4.63-2.98 3.68c-.07.09-.15.18-.24.25-.09.08-.19.15-.3.22-.03.02-.07.04-.11.06-.1.04-.2.09-.3.11-.06.02-.13.04-.19.05-.04.01-.09.02-.13.02-.03 0-.07.01-.1.01s-.07 0-.1.01c-.14 0-.27 0-.41-.03-.32-.05-.63-.19-.89-.4-.85-.69-.98-1.93-.29-2.77l6.04-7.46 1.36-1.68 1.98-2.45.66-.82.55-.68 5.26-6.49 10.31-12.75 2-2.46 1.88-2.33.02-.02 6.35-7.85c.19-.24.43-.42.7-.54.13-.06.27-.1.41-.14.14-.02.28-.04.42-.04.33 0 .66.08.96.24a1.989 1.989 0 0 1 .9 2.37z"/></g></g></g></g></g></svg>