<?xml version="1.0" encoding="utf-8"?>
<!-- Generator: Adobe Illustrator 26.0.1, SVG Export Plug-In . SVG Version: 6.00 Build 0)  -->
<svg version="1.1" id="Layer_1" xmlns="http://www.w3.org/2000/svg" xmlns:xlink="http://www.w3.org/1999/xlink" x="0px" y="0px"
	 viewBox="0 0 60 60" style="enable-background:new 0 0 60 60;" xml:space="preserve">
<style type="text/css">
	.st0{opacity:0.6;}
	.st1{fill:#FFFFFF;}
</style>
<g id="Group_2118" class="st0">
	<g id="Group_2116">
		<path class="st1" d="M51.6,56.4c-0.2,0-0.5,0-0.7-0.1l0,0l-13.8-5.5c-2.4,0.6-4.9,0.8-7.3,0.8C13.9,51.6,1,40.8,1,27.6
			s12.9-24,28.8-24s28.8,10.8,28.8,24c-0.1,5.5-2.3,10.8-6.1,14.8L53.8,54c0.1,0.8-0.3,1.5-0.8,2l-0.1,0.1
			C52.5,56.3,52.1,56.4,51.6,56.4L51.6,56.4z M51.4,54.3c0.1,0,0.2,0,0.2,0.1c0,0,0.1,0,0.1,0c0.1-0.1,0.1-0.1,0.1-0.2l-1.4-12.6
			l0.3-0.3c3.7-3.6,5.8-8.5,5.9-13.7c0-12.1-12-22-26.8-22S3,15.5,3,27.6s12,22,26.8,22c2.4,0,4.8-0.3,7.1-0.8l0.3-0.1L51.4,54.3z"
			/>
	</g>
	<g id="Group_2117">
		<path class="st1" d="M18.9,39.5c-2.6,0-4.6-2.1-4.6-4.6V20.3c0-2.6,2.1-4.6,4.6-4.6h14.5c2.5,0,4.6,2.1,4.6,4.6v2l5.8-2.9
			c0.3-0.2,0.7-0.1,1,0c0.3,0.2,0.5,0.5,0.5,0.9v14.5c0,0.6-0.5,1-1,1c-0.2,0-0.3,0-0.4-0.1L38,32.8v2c0,2.6-2.1,4.6-4.6,4.6l0,0
			L18.9,39.5z M18.9,17.7c-1.5,0-2.6,1.2-2.6,2.6v14.5c0,1.5,1.2,2.6,2.6,2.6h0h14.5c1.4,0,2.6-1.2,2.6-2.6v-3.6
			c0-0.3,0.2-0.7,0.5-0.9c0.3-0.2,0.7-0.2,1,0l5.8,2.9V22l-5.8,2.9c-0.3,0.2-0.7,0.2-1,0C36.2,24.7,36,24.4,36,24v-3.7
			c0-1.5-1.2-2.6-2.6-2.6L18.9,17.7z"/>
	</g>
</g>
</svg>
