<svg xmlns="http://www.w3.org/2000/svg" width="53" height="55" viewBox="0 0 53 55"><g><g><g><g><path fill="#fff" d="M37.996 23.353a.549.549 0 0 0-.643.26 5.927 5.927 0 0 1-4.262 3.461c-.36.08-.744.113-1.127.124h-.282c-2.921 0-5.48-2.086-6.078-4.961l-.136-.677h2.03c.18 0 .305-.101.316-.248l-2.706-4.871c-.08-.113-.203-.203-.26-.18-.045 0-.101.056-.113.078l-2.66 4.883s-.159.35.304.338h1.984l.08.474c.518 3.586 3.63 6.28 7.25 6.292h.068c.067 0 .135 0 .203-.011a6.27 6.27 0 0 0 1.127-.113 7.255 7.255 0 0 0 5.322-4.229c.057-.225-.112-.541-.417-.62z"/><path fill="none" stroke="#be76a5" stroke-miterlimit="20" stroke-width=".5" d="M37.996 23.353a.549.549 0 0 0-.643.26 5.927 5.927 0 0 1-4.262 3.461c-.36.08-.744.113-1.127.124h-.282c-2.921 0-5.48-2.086-6.078-4.961l-.136-.677v0h2.03c.18 0 .305-.101.316-.248l-2.706-4.871c-.08-.113-.203-.203-.26-.18-.045 0-.101.056-.113.078l-2.66 4.883v0s-.159.35.304.338h1.984v0l.08.474c.518 3.586 3.63 6.28 7.25 6.292h.068c.067 0 .135 0 .203-.011a6.27 6.27 0 0 0 1.127-.113 7.255 7.255 0 0 0 5.322-4.229c.057-.225-.112-.541-.417-.62z"/></g><g><path fill="none" stroke="#be76a5" stroke-miterlimit="20" stroke-width=".5" d="M47.75 8.375V44.37c0 .236-.023.461-.068.686-.067.327-.191.63-.338.923a2.945 2.945 0 0 1-.586.776 4.617 4.617 0 0 1-.496.416c-.09.056-.181.113-.282.169a3.79 3.79 0 0 1-.925.337 3.475 3.475 0 0 1-.688.068h-12.72a2.14 2.14 0 0 0 .317-1.125v-17.2c.383 0 .766-.033 1.127-.1v17.3h11.276a2.26 2.26 0 0 0 2.255-2.25V8.375a2.26 2.26 0 0 0-2.255-2.25H22.943c-.835 0-1.314 1.091-1.698 1.766h8.705c.237 0 .463.023.688.068.327.067.632.19.925.337.101.056.192.113.282.169.18.124.35.259.496.416.158.146.293.315.417.495.057.09.113.18.17.281.146.293.095.121.163.447.045.225 0 .284 0 .52V25.89c-.36.101-.744.157-1.127.168V10.624a2.26 2.26 0 0 0-2.256-2.25H19.56c0-.393.067-.776.191-1.124a3.44 3.44 0 0 1 .801-1.26c.147-.158.316-.293.496-.416.09-.057.18-.113.282-.169.282-.146.598-.27.925-.337.225-.046.45-.068.688-.068h21.424c.237 0 .462.022.688.068.327.067.631.19.925.337a2.956 2.956 0 0 1 .778.585 2.946 2.946 0 0 1 .586.776c.147.292.27.596.338.922.045.225.068.45.068.687z"/></g><g><path fill="#be76a5" d="M47.682 7.688a3.773 3.773 0 0 0-.338-.922 6.202 6.202 0 0 0-.17-.281 4.613 4.613 0 0 0-.416-.495 4.617 4.617 0 0 0-.496-.416c-.09-.057-.181-.113-.282-.169a3.786 3.786 0 0 0-.925-.337A3.475 3.475 0 0 0 44.367 5H22.943c-.237 0-.463.023-.688.068a3.625 3.625 0 0 0-.925.337c-.101.056-.192.112-.282.169-.18.123-.35.27-.496.416a3.44 3.44 0 0 0-.8 1.26 3.367 3.367 0 0 0-.192 1.125h1.127c0-.405.113-.799.316-1.125a2.22 2.22 0 0 1 1.94-1.125h21.424a2.26 2.26 0 0 1 2.255 2.25V44.37a2.26 2.26 0 0 1-2.255 2.25H31.963c0 .405-.112.799-.315 1.125h12.72c.236 0 .461-.023.687-.068a3.79 3.79 0 0 0 .925-.337c.101-.056.191-.113.282-.169.18-.135.35-.27.496-.416.146-.146.282-.315.417-.495.056-.09.113-.18.169-.281.147-.293.27-.596.338-.923a3.46 3.46 0 0 0 .068-.686V8.375c0-.237-.023-.462-.068-.687z"/><path fill="none" stroke="#be76a5" stroke-miterlimit="20" stroke-width=".5" d="M47.682 7.688a3.773 3.773 0 0 0-.338-.922 6.202 6.202 0 0 0-.17-.281 4.613 4.613 0 0 0-.416-.495 4.617 4.617 0 0 0-.496-.416c-.09-.057-.181-.113-.282-.169a3.786 3.786 0 0 0-.925-.337A3.475 3.475 0 0 0 44.367 5H22.943c-.237 0-.463.023-.688.068a3.625 3.625 0 0 0-.925.337c-.101.056-.192.112-.282.169-.18.123-.35.27-.496.416a3.44 3.44 0 0 0-.8 1.26 3.367 3.367 0 0 0-.192 1.125h1.127c0-.405.113-.799.316-1.125a2.22 2.22 0 0 1 1.94-1.125h21.424a2.26 2.26 0 0 1 2.255 2.25V44.37a2.26 2.26 0 0 1-2.255 2.25H31.963c0 .405-.112.799-.315 1.125h12.72c.236 0 .461-.023.687-.068a3.79 3.79 0 0 0 .925-.337c.101-.056.191-.113.282-.169.18-.135.35-.27.496-.416.146-.146.282-.315.417-.495.056-.09.113-.18.169-.281.147-.293.27-.596.338-.923a3.46 3.46 0 0 0 .068-.686V8.375c0-.237-.023-.462-.068-.687z"/></g></g><g><g><path fill="none" stroke="#be76a5" stroke-miterlimit="20" stroke-width=".5" d="M33.19 25.464v0-14.147a3.34 3.34 0 0 0-.067-.674 3.662 3.662 0 0 0-.339-.907 2.91 2.91 0 0 0-.586-.763 2.947 2.947 0 0 0-.778-.574 3.834 3.834 0 0 0-.925-.332 3.537 3.537 0 0 0-.688-.066H8.383c-.237 0-.463.022-.688.066a3.669 3.669 0 0 0-.925.332c-.101.055-.191.11-.282.166-.18.121-.35.254-.496.409A3.25 3.25 0 0 0 5 11.317v35.367c0 .918.372 1.735.992 2.343.147.144.316.288.496.41.09.055.18.11.282.165.282.144.598.265.925.332.225.044.451.066.688.066h21.424c.237 0 .463-.022.688-.066.327-.067.632-.188.925-.332.101-.055.192-.11.282-.166.18-.132.35-.265.496-.409a2.909 2.909 0 0 0 .586-.762c.08-.155.158-.31.214-.476.023-.077.046-.143.068-.21.023-.066.045-.143.057-.22.045-.222.067-.443.067-.675V29.686c-.36.066-.744.1-1.127.1v16.898c0 .398-.113.785-.316 1.105a2.227 2.227 0 0 1-1.94 1.106H8.383c-1.24 0-2.255-.995-2.255-2.21V11.316c0-1.216 1.014-2.21 2.255-2.21h21.424c1.24 0 2.256.994 2.256 2.21V25.63a4.787 4.787 0 0 0 1.127-.166z"/></g><g><path fill="#be76a5" d="M33.19 25.618V11.317a3.34 3.34 0 0 0-.067-.674 3.662 3.662 0 0 0-.339-.907 6.099 6.099 0 0 0-.169-.276 4.562 4.562 0 0 0-.417-.486 4.604 4.604 0 0 0-.496-.41 6.38 6.38 0 0 0-.282-.165 3.834 3.834 0 0 0-.925-.332 3.537 3.537 0 0 0-.688-.066H8.383c-.237 0-.463.022-.688.066a3.669 3.669 0 0 0-.925.332c-.101.055-.191.11-.282.166-.18.121-.35.265-.496.409A3.25 3.25 0 0 0 5 11.317v35.367c0 .918.372 1.735.992 2.343.147.144.316.288.496.41.09.055.18.11.282.165.282.144.598.265.925.332.225.044.451.066.688.066h21.424c.237 0 .463-.022.688-.066.327-.067.632-.188.925-.332.101-.055.192-.11.282-.166.18-.132.35-.265.496-.409.146-.143.282-.31.417-.486.057-.088.113-.177.17-.276.078-.155.146-.31.202-.476.034-.077.057-.143.08-.21.022-.066.044-.143.056-.22.045-.222.067-.443.067-.675V29.686c-.36.066-.744.1-1.127.1v16.898c0 .398-.113.785-.316 1.105a2.227 2.227 0 0 1-1.94 1.106H8.383c-1.24 0-2.255-.995-2.255-2.21V11.316c0-1.216 1.014-2.21 2.255-2.21h21.424c1.24 0 2.256.994 2.256 2.21v14.467a4.784 4.784 0 0 0 1.127-.166z"/><path fill="none" stroke="#be76a5" stroke-miterlimit="20" stroke-width=".5" d="M33.19 25.618V11.317a3.34 3.34 0 0 0-.067-.674 3.662 3.662 0 0 0-.339-.907 6.099 6.099 0 0 0-.169-.276 4.562 4.562 0 0 0-.417-.486 4.604 4.604 0 0 0-.496-.41 6.38 6.38 0 0 0-.282-.165 3.834 3.834 0 0 0-.925-.332 3.537 3.537 0 0 0-.688-.066H8.383c-.237 0-.463.022-.688.066a3.669 3.669 0 0 0-.925.332c-.101.055-.191.11-.282.166-.18.121-.35.265-.496.409A3.25 3.25 0 0 0 5 11.317v35.367c0 .918.372 1.735.992 2.343.147.144.316.288.496.41.09.055.18.11.282.165.282.144.598.265.925.332.225.044.451.066.688.066h21.424c.237 0 .463-.022.688-.066.327-.067.632-.188.925-.332.101-.055.192-.11.282-.166.18-.132.35-.265.496-.409.146-.143.282-.31.417-.486.057-.088.113-.177.17-.276.078-.155.146-.31.202-.476.034-.077.057-.143.08-.21.022-.066.044-.143.056-.22.045-.222.067-.443.067-.675V29.686c-.36.066-.744.1-1.127.1v16.898c0 .398-.113.785-.316 1.105a2.227 2.227 0 0 1-1.94 1.106H8.383c-1.24 0-2.255-.995-2.255-2.21V11.316c0-1.216 1.014-2.21 2.255-2.21h21.424c1.24 0 2.256.994 2.256 2.21v14.467a4.784 4.784 0 0 0 1.127-.166z"/></g></g><g><g><g><path fill="#be76a5" d="M38.448 23.976a7.255 7.255 0 0 1-5.322 4.228 6.27 6.27 0 0 1-1.128.113c-.067.011-.135.011-.203.011h-.067c-3.62-.01-6.732-2.706-7.25-6.292l-.08-.473h-1.984c-.463.011-.305-.338-.305-.338l2.661-4.883c.012-.023.068-.079.113-.079.057-.023.18.068.26.18l2.706 4.872c-.011.146-.136.248-.316.248h-2.03l.136.676c.597 2.876 3.157 4.962 6.077 4.962h.282a6.168 6.168 0 0 0 1.128-.124 5.927 5.927 0 0 0 4.262-3.462.549.549 0 0 1 .643-.26c.305.08.474.395.417.62z"/><path fill="none" stroke="#be76a5" stroke-miterlimit="20" stroke-width=".5" d="M38.448 23.976a7.255 7.255 0 0 1-5.322 4.228 6.27 6.27 0 0 1-1.128.113c-.067.011-.135.011-.203.011h-.067c-3.62-.01-6.732-2.706-7.25-6.292l-.08-.473v0h-1.984c-.463.011-.305-.338-.305-.338v0l2.661-4.883c.012-.023.068-.079.113-.079.057-.023.18.068.26.18l2.706 4.872c-.011.146-.136.248-.316.248h-2.03v0l.136.676c.597 2.876 3.157 4.962 6.077 4.962h.282a6.168 6.168 0 0 0 1.128-.124 5.927 5.927 0 0 0 4.262-3.462.549.549 0 0 1 .643-.26c.305.08.474.395.417.62z"/></g></g></g></g></g></svg>