<svg xmlns="http://www.w3.org/2000/svg" width="54" height="55" viewBox="0 0 54 55"><g><g opacity=".6"><g opacity=".6"><g opacity=".6"><path fill="#fff" d="M38.685 23.326a.549.549 0 0 0-.643.26 5.927 5.927 0 0 1-4.262 3.461c-.361.079-.745.113-1.128.124h-.282c-2.92 0-5.48-2.086-6.078-4.961l-.135-.677h2.03c.18 0 .304-.101.315-.248l-2.706-4.871c-.079-.113-.203-.203-.26-.18-.044 0-.1.056-.112.078l-2.661 4.883s-.158.35.304.338h1.985l.079.474c.518 3.585 3.63 6.28 7.25 6.292h.068c.068 0 .135 0 .203-.012a6.27 6.27 0 0 0 1.128-.112 7.255 7.255 0 0 0 5.322-4.229c.056-.225-.113-.541-.417-.62z"/><path fill="none" stroke="#fff" stroke-miterlimit="20" stroke-width=".5" d="M38.685 23.326a.549.549 0 0 0-.643.26 5.927 5.927 0 0 1-4.262 3.461c-.361.079-.745.113-1.128.124h-.282c-2.92 0-5.48-2.086-6.078-4.961l-.135-.677v0h2.03c.18 0 .304-.101.315-.248l-2.706-4.871c-.079-.113-.203-.203-.26-.18-.044 0-.1.056-.112.078l-2.661 4.883v0s-.158.35.304.338h1.985v0l.079.474c.518 3.585 3.63 6.28 7.25 6.292h.068c.068 0 .135 0 .203-.012a6.27 6.27 0 0 0 1.128-.112 7.255 7.255 0 0 0 5.322-4.229c.056-.225-.113-.541-.417-.62z"/></g><g opacity=".6"><path fill="#fff" d="M48.439 8.347v35.996c0 .236-.023.461-.068.686-.068.327-.192.63-.338.923a2.945 2.945 0 0 1-.586.776 4.617 4.617 0 0 1-.497.416c-.09.056-.18.113-.282.169a3.79 3.79 0 0 1-.925.337 3.475 3.475 0 0 1-.687.068h-12.72a2.14 2.14 0 0 0 .316-1.125v-17.2c.383 0 .767-.033 1.128-.1v17.3h11.276a2.26 2.26 0 0 0 2.255-2.25V8.347a2.26 2.26 0 0 0-2.255-2.25H23.63c-.834 0-1.314 1.092-1.697 1.767h8.705c.237 0 .462.023.688.068.327.067.631.19.925.337.101.056.191.113.281.169.18.123.35.258.496.416.158.146.294.315.418.495.056.09.112.18.169.281.147.293.096.121.164.447.045.225 0 .284 0 .52v15.265c-.361.1-.745.157-1.128.168V10.597a2.26 2.26 0 0 0-2.255-2.25H20.248c0-.393.068-.776.192-1.124a3.44 3.44 0 0 1 .8-1.26c.147-.158.316-.293.497-.416.09-.057.18-.113.282-.17.282-.145.597-.27.924-.337.226-.045.451-.067.688-.067h21.425c.236 0 .462.022.687.067.328.068.632.192.925.338a2.956 2.956 0 0 1 .778.585 2.946 2.946 0 0 1 .587.776c.146.292.27.596.338.922.045.225.068.45.068.686z"/><path fill="none" stroke="#fff" stroke-miterlimit="20" stroke-width=".5" d="M48.439 8.347v35.996c0 .236-.023.461-.068.686-.068.327-.192.63-.338.923a2.945 2.945 0 0 1-.586.776 4.617 4.617 0 0 1-.497.416c-.09.056-.18.113-.282.169a3.79 3.79 0 0 1-.925.337 3.475 3.475 0 0 1-.687.068h-12.72a2.14 2.14 0 0 0 .316-1.125v-17.2c.383 0 .767-.033 1.128-.1v17.3h11.276a2.26 2.26 0 0 0 2.255-2.25V8.347a2.26 2.26 0 0 0-2.255-2.25H23.63c-.834 0-1.314 1.092-1.697 1.767h8.705c.237 0 .462.023.688.068.327.067.631.19.925.337.101.056.191.113.281.169.18.123.35.258.496.416.158.146.294.315.418.495.056.09.112.18.169.281.147.293.096.121.164.447.045.225 0 .284 0 .52v15.265c-.361.1-.745.157-1.128.168V10.597a2.26 2.26 0 0 0-2.255-2.25H20.248c0-.393.068-.776.192-1.124a3.44 3.44 0 0 1 .8-1.26c.147-.158.316-.293.497-.416.09-.057.18-.113.282-.17.282-.145.597-.27.924-.337.226-.045.451-.067.688-.067h21.425c.236 0 .462.022.687.067.328.068.632.192.925.338a2.956 2.956 0 0 1 .778.585 2.946 2.946 0 0 1 .587.776c.146.292.27.596.338.922.045.225.068.45.068.686z"/></g><g opacity=".6"><path fill="#fff" d="M48.37 7.661a3.773 3.773 0 0 0-.337-.922 6.202 6.202 0 0 0-.17-.281 4.613 4.613 0 0 0-.417-.495 4.617 4.617 0 0 0-.496-.416c-.09-.057-.18-.113-.282-.17a3.786 3.786 0 0 0-.925-.337 3.475 3.475 0 0 0-.687-.067H23.63c-.237 0-.462.022-.688.067a3.625 3.625 0 0 0-.924.338c-.102.056-.192.112-.282.169-.18.123-.35.27-.496.416a3.44 3.44 0 0 0-.801 1.26 3.367 3.367 0 0 0-.192 1.124h1.128c0-.404.113-.798.316-1.124a2.22 2.22 0 0 1 1.94-1.125h21.424a2.26 2.26 0 0 1 2.255 2.25v35.995a2.26 2.26 0 0 1-2.255 2.25H32.652c0 .405-.113.799-.316 1.125h12.72c.236 0 .462-.023.687-.068a3.79 3.79 0 0 0 .925-.337c.102-.056.192-.113.282-.169.18-.135.35-.27.496-.416.147-.146.282-.315.417-.495.057-.09.113-.18.17-.281.146-.293.27-.596.338-.923a3.46 3.46 0 0 0 .068-.686V8.347c0-.236-.023-.46-.068-.686z"/><path fill="none" stroke="#fff" stroke-miterlimit="20" stroke-width=".5" d="M48.37 7.661a3.773 3.773 0 0 0-.337-.922 6.202 6.202 0 0 0-.17-.281 4.613 4.613 0 0 0-.417-.495 4.617 4.617 0 0 0-.496-.416c-.09-.057-.18-.113-.282-.17a3.786 3.786 0 0 0-.925-.337 3.475 3.475 0 0 0-.687-.067H23.63c-.237 0-.462.022-.688.067a3.625 3.625 0 0 0-.924.338c-.102.056-.192.112-.282.169-.18.123-.35.27-.496.416a3.44 3.44 0 0 0-.801 1.26 3.367 3.367 0 0 0-.192 1.124h1.128c0-.404.113-.798.316-1.124a2.22 2.22 0 0 1 1.94-1.125h21.424a2.26 2.26 0 0 1 2.255 2.25v35.995a2.26 2.26 0 0 1-2.255 2.25H32.652c0 .405-.113.799-.316 1.125h12.72c.236 0 .462-.023.687-.068a3.79 3.79 0 0 0 .925-.337c.102-.056.192-.113.282-.169.18-.135.35-.27.496-.416.147-.146.282-.315.417-.495.057-.09.113-.18.17-.281.146-.293.27-.596.338-.923a3.46 3.46 0 0 0 .068-.686V8.347c0-.236-.023-.46-.068-.686z"/></g></g><g opacity=".6"><g opacity=".6"><path fill="#fff" d="M33.879 25.437V11.29a3.34 3.34 0 0 0-.068-.675 3.662 3.662 0 0 0-.338-.906 2.91 2.91 0 0 0-.586-.763 2.947 2.947 0 0 0-.779-.574 3.834 3.834 0 0 0-.924-.332 3.537 3.537 0 0 0-.688-.066H9.07c-.236 0-.462.022-.688.066a3.669 3.669 0 0 0-.924.332c-.102.055-.192.11-.282.166-.18.121-.35.254-.496.409a3.25 3.25 0 0 0-.992 2.343v35.367c0 .918.372 1.735.992 2.343.146.144.316.288.496.41.09.055.18.11.282.165.282.144.597.265.924.332.226.044.452.066.688.066h21.425c.237 0 .462-.022.688-.066.327-.067.631-.188.924-.332.102-.055.192-.11.282-.166.18-.132.35-.265.496-.409a2.909 2.909 0 0 0 .587-.762c.079-.155.158-.31.214-.476.023-.077.045-.143.068-.21.022-.066.045-.143.056-.22.045-.222.068-.443.068-.675V29.66c-.361.066-.745.1-1.128.1v16.898c0 .398-.113.785-.316 1.105a2.227 2.227 0 0 1-1.94 1.106H9.072c-1.24 0-2.255-.995-2.255-2.21V11.29c0-1.216 1.015-2.21 2.255-2.21h21.425c1.24 0 2.255.994 2.255 2.21v14.313a4.787 4.787 0 0 0 1.128-.166z"/><path fill="none" stroke="#fff" stroke-miterlimit="20" stroke-width=".5" d="M33.879 25.437v0V11.29a3.34 3.34 0 0 0-.068-.675 3.662 3.662 0 0 0-.338-.906 2.91 2.91 0 0 0-.586-.763 2.947 2.947 0 0 0-.779-.574 3.834 3.834 0 0 0-.924-.332 3.537 3.537 0 0 0-.688-.066H9.07c-.236 0-.462.022-.688.066a3.669 3.669 0 0 0-.924.332c-.102.055-.192.11-.282.166-.18.121-.35.254-.496.409a3.25 3.25 0 0 0-.992 2.343v35.367c0 .918.372 1.735.992 2.343.146.144.316.288.496.41.09.055.18.11.282.165.282.144.597.265.924.332.226.044.452.066.688.066h21.425c.237 0 .462-.022.688-.066.327-.067.631-.188.924-.332.102-.055.192-.11.282-.166.18-.132.35-.265.496-.409a2.909 2.909 0 0 0 .587-.762c.079-.155.158-.31.214-.476.023-.077.045-.143.068-.21.022-.066.045-.143.056-.22.045-.222.068-.443.068-.675V29.66c-.361.066-.745.1-1.128.1v16.898c0 .398-.113.785-.316 1.105a2.227 2.227 0 0 1-1.94 1.106H9.072c-1.24 0-2.255-.995-2.255-2.21V11.29c0-1.216 1.015-2.21 2.255-2.21h21.425c1.24 0 2.255.994 2.255 2.21v14.313a4.787 4.787 0 0 0 1.128-.166z"/></g><g opacity=".6"><path fill="#fff" d="M33.879 25.59v-14.3a3.34 3.34 0 0 0-.068-.675 3.662 3.662 0 0 0-.338-.906 6.099 6.099 0 0 0-.17-.276 4.562 4.562 0 0 0-.417-.486 4.604 4.604 0 0 0-.496-.41 6.38 6.38 0 0 0-.282-.165 3.834 3.834 0 0 0-.924-.332 3.537 3.537 0 0 0-.688-.066H9.07c-.236 0-.462.022-.688.066a3.669 3.669 0 0 0-.924.332c-.102.055-.192.11-.282.166-.18.121-.35.265-.496.409a3.25 3.25 0 0 0-.992 2.343v35.367c0 .918.372 1.735.992 2.343.146.144.316.288.496.41.09.055.18.11.282.165.282.144.597.265.924.332.226.044.452.066.688.066h21.425c.237 0 .462-.022.688-.066.327-.067.631-.188.924-.332.102-.055.192-.11.282-.166.18-.132.35-.265.496-.409.147-.143.282-.31.418-.486.056-.088.112-.177.169-.276.079-.155.146-.31.203-.476.034-.077.056-.143.079-.21.022-.066.045-.143.056-.22.045-.222.068-.443.068-.675V29.66c-.361.066-.745.1-1.128.1v16.898c0 .398-.113.785-.316 1.105a2.227 2.227 0 0 1-1.94 1.106H9.072c-1.24 0-2.255-.995-2.255-2.21V11.29c0-1.216 1.015-2.21 2.255-2.21h21.425c1.24 0 2.255.994 2.255 2.21v14.467a4.784 4.784 0 0 0 1.128-.166z"/><path fill="none" stroke="#fff" stroke-miterlimit="20" stroke-width=".5" d="M33.879 25.59v-14.3a3.34 3.34 0 0 0-.068-.675 3.662 3.662 0 0 0-.338-.906 6.099 6.099 0 0 0-.17-.276 4.562 4.562 0 0 0-.417-.486 4.604 4.604 0 0 0-.496-.41 6.38 6.38 0 0 0-.282-.165 3.834 3.834 0 0 0-.924-.332 3.537 3.537 0 0 0-.688-.066H9.07c-.236 0-.462.022-.688.066a3.669 3.669 0 0 0-.924.332c-.102.055-.192.11-.282.166-.18.121-.35.265-.496.409a3.25 3.25 0 0 0-.992 2.343v35.367c0 .918.372 1.735.992 2.343.146.144.316.288.496.41.09.055.18.11.282.165.282.144.597.265.924.332.226.044.452.066.688.066h21.425c.237 0 .462-.022.688-.066.327-.067.631-.188.924-.332.102-.055.192-.11.282-.166.18-.132.35-.265.496-.409.147-.143.282-.31.418-.486.056-.088.112-.177.169-.276.079-.155.146-.31.203-.476.034-.077.056-.143.079-.21.022-.066.045-.143.056-.22.045-.222.068-.443.068-.675V29.66c-.361.066-.745.1-1.128.1v16.898c0 .398-.113.785-.316 1.105a2.227 2.227 0 0 1-1.94 1.106H9.072c-1.24 0-2.255-.995-2.255-2.21V11.29c0-1.216 1.015-2.21 2.255-2.21h21.425c1.24 0 2.255.994 2.255 2.21v14.467a4.784 4.784 0 0 0 1.128-.166z"/></g></g><g opacity=".6"><g opacity=".6"><g opacity=".6"><path fill="#fff" d="M39.137 23.949a7.255 7.255 0 0 1-5.322 4.228 6.27 6.27 0 0 1-1.128.113c-.068.011-.135.011-.203.011h-.068c-3.62-.01-6.732-2.706-7.25-6.292l-.08-.473h-1.984c-.462.011-.304-.339-.304-.339l2.66-4.882c.012-.023.069-.08.114-.08.056-.022.18.069.259.181l2.706 4.872c-.01.146-.135.248-.316.248h-2.03l.136.676c.598 2.876 3.157 4.962 6.078 4.962h.282a6.168 6.168 0 0 0 1.128-.124 5.927 5.927 0 0 0 4.262-3.462.549.549 0 0 1 .643-.26c.304.08.473.395.417.62z"/><path fill="none" stroke="#fff" stroke-miterlimit="20" stroke-width=".5" d="M39.137 23.949a7.255 7.255 0 0 1-5.322 4.228 6.27 6.27 0 0 1-1.128.113c-.068.011-.135.011-.203.011h-.068c-3.62-.01-6.732-2.706-7.25-6.292l-.08-.473v0h-1.984c-.462.011-.304-.339-.304-.339v0l2.66-4.882c.012-.023.069-.08.114-.08.056-.022.18.069.259.181l2.706 4.872c-.01.146-.135.248-.316.248h-2.03v0l.136.676c.598 2.876 3.157 4.962 6.078 4.962h.282a6.168 6.168 0 0 0 1.128-.124 5.927 5.927 0 0 0 4.262-3.462.549.549 0 0 1 .643-.26c.304.08.473.395.417.62z"/></g></g></g></g></g></svg>