<?xml version="1.0" encoding="utf-8"?>
<!-- Generator: Adobe Illustrator 25.4.1, SVG Export Plug-In . SVG Version: 6.00 Build 0)  -->
<svg version="1.1" id="noun_help_2302546" xmlns="http://www.w3.org/2000/svg" xmlns:xlink="http://www.w3.org/1999/xlink" x="0px"
	 y="0px" viewBox="0 0 30 30" style="enable-background:new 0 0 30 30;" xml:space="preserve">
<style type="text/css">
	.st0{fill:#FFFFFF;}
</style>
<g>
	<path id="Path_987" class="st0" d="M15,5.7c5.1,0,9.3,4.2,9.3,9.3s-4.2,9.3-9.3,9.3S5.7,20.1,5.7,15S9.9,5.7,15,5.7
		C15,5.7,15,5.7,15,5.7 M15,3.6C8.7,3.6,3.6,8.7,3.6,15S8.7,26.4,15,26.4S26.4,21.3,26.4,15l0,0C26.4,8.7,21.3,3.6,15,3.6z"/>
	<path id="Path_988" class="st0" d="M14.9,17.4h-0.8c-0.1,0-0.3-0.1-0.3-0.2c0,0,0,0,0,0c0-0.7,0-1.4,0.2-2.1
		c0.1-0.3,0.3-0.7,0.5-0.9c0.2-0.2,0.5-0.5,0.7-0.7c0.2-0.2,0.5-0.5,0.8-0.7c0.4-0.3,0.5-0.9,0.2-1.3c-0.1-0.1-0.2-0.2-0.4-0.3
		c-0.8-0.4-1.7-0.1-2.2,0.6c0,0,0,0.1-0.1,0.1c-0.1,0.1-0.1,0.3-0.1,0.4c-0.1,0.2-0.1,0.3-0.4,0.2l-1.6-0.2c-0.2,0-0.3-0.1-0.3-0.3
		c0,0,0,0,0,0c0.2-1.5,1.3-2.7,2.7-2.9c1-0.2,2-0.1,2.9,0.3c0.8,0.3,1.4,1,1.7,1.8c0.3,0.8,0.2,1.7-0.4,2.4
		c-0.4,0.5-0.8,0.9-1.3,1.3c-0.2,0.1-0.3,0.3-0.5,0.4c-0.2,0.2-0.4,0.5-0.4,0.8c0,0.3,0,0.7,0,1c0,0.2-0.1,0.3-0.2,0.3
		c0,0,0,0-0.1,0L14.9,17.4L14.9,17.4z"/>
	<path id="Path_989" class="st0" d="M16.1,19.9c0,0.6-0.5,1.1-1.1,1.1s-1.1-0.5-1.1-1.1c0-0.6,0.5-1.1,1.1-1.1l0,0
		C15.6,18.8,16.1,19.3,16.1,19.9z"/>
</g>
</svg>
