<?xml version="1.0" encoding="utf-8"?>
<!-- Generator: Adobe Illustrator 25.3.1, SVG Export Plug-In . SVG Version: 6.00 Build 0)  -->
<svg version="1.1" id="Layer_1" xmlns="http://www.w3.org/2000/svg" xmlns:xlink="http://www.w3.org/1999/xlink" x="0px" y="0px"
	 viewBox="0 0 378 378" style="enable-background:new 0 0 378 378;" xml:space="preserve">
<style type="text/css">
	.st0{fill:#127FC4;}
	.st1{fill:url(#Rectangle_831_1_);}
	.st2{fill:#FFFFFF;}
	.st3{opacity:0.2;fill:#118ACB;enable-background:new    ;}
	.st4{fill:url(#Rectangle_834_1_);}
	.st5{fill:url(#Rectangle_836_1_);}
	.st6{fill:#118ACB;}
	.st7{fill:#E0E0E0;}
	.st8{fill:#F5F5F5;}
	.st9{opacity:0.2;fill:#561958;enable-background:new    ;}
	.st10{fill:#561958;}
	.st11{fill:url(#Rectangle_849_1_);}
	.st12{fill:url(#Rectangle_853_1_);}
	.st13{fill:url(#Rectangle_856_1_);}
	.st14{fill:#333333;}
	.st15{fill:#A0616A;}
	.st16{fill:#D99292;}
	.st17{fill:#76DEFF;}
	.st18{fill:#6C6C6C;}
	.st19{fill:#2F2E41;}
	.st20{fill:#E4E4E4;}
	.st21{fill:none;stroke:#707070;}
	.st22{opacity:0.2;}
	.st23{fill:#3F3D56;}
	.st24{opacity:0.1;enable-background:new    ;}
</style>
<path id="Path_232" class="st0" d="M36.7,155.3C65.9,59.9,145.6-0.2,214.8,21S379,94.8,349.9,190.1s-170,172.6-239.2,151.4
	C41.5,320.4,7.6,250.6,36.7,155.3z"/>
<g id="Group_1475" transform="translate(90.177 85.508)">
	
		<linearGradient id="Rectangle_831_1_" gradientUnits="userSpaceOnUse" x1="89.4753" y1="111.6903" x2="89.4753" y2="112.6903" gradientTransform="matrix(97.96 0 0 -151.048 -8665.667 17004.2266)">
		<stop  offset="0" style="stop-color:#808080;stop-opacity:0.251"/>
		<stop  offset="0.54" style="stop-color:#808080;stop-opacity:0.122"/>
		<stop  offset="1" style="stop-color:#808080;stop-opacity:0.102"/>
	</linearGradient>
	<rect id="Rectangle_831" x="50.4" y="-17.4" class="st1" width="98" height="151"/>
	<rect id="Rectangle_832" x="50.5" y="-14.5" class="st2" width="95.6" height="145.5"/>
	<rect id="Rectangle_833" x="4.2" y="9.4" class="st3" width="73.2" height="46.5"/>
	
		<linearGradient id="Rectangle_834_1_" gradientUnits="userSpaceOnUse" x1="89.1661" y1="114.2895" x2="89.1661" y2="115.2895" gradientTransform="matrix(83.915 0 0 -47.663 -7449.4121 5497.9878)">
		<stop  offset="0" style="stop-color:#808080;stop-opacity:0.251"/>
		<stop  offset="0.54" style="stop-color:#808080;stop-opacity:0.122"/>
		<stop  offset="1" style="stop-color:#808080;stop-opacity:0.102"/>
	</linearGradient>
	<rect id="Rectangle_834" x="-9" y="2.9" class="st4" width="83.9" height="47.7"/>
	<rect id="Rectangle_835" x="-8.1" y="9.9" class="st2" width="81.9" height="39.6"/>
	
		<linearGradient id="Rectangle_836_1_" gradientUnits="userSpaceOnUse" x1="84.8535" y1="117.0281" x2="85.8535" y2="117.0281" gradientTransform="matrix(30.321 0 0 -29.986 -2576.3062 3537.438)">
		<stop  offset="0" style="stop-color:#808080;stop-opacity:0.251"/>
		<stop  offset="0.54" style="stop-color:#808080;stop-opacity:0.122"/>
		<stop  offset="1" style="stop-color:#808080;stop-opacity:0.102"/>
	</linearGradient>
	<path id="Rectangle_836" class="st5" d="M11.5,13.2h0.3c8.3,0,15,6.7,15,15l0,0c0,8.3-6.7,15-15,15h-0.3c-8.3,0-15-6.7-15-15l0,0
		C-3.5,20,3.3,13.2,11.5,13.2z"/>
	<path id="Rectangle_837" class="st6" d="M11.8,14.9h0.1c7.4,0,13.4,6,13.4,13.4l0,0c0,7.4-6,13.4-13.4,13.4h-0.1
		c-7.4,0-13.4-6-13.4-13.4l0,0C-1.6,20.8,4.4,14.9,11.8,14.9z"/>
	<rect id="Rectangle_838" x="-8.1" y="3.8" class="st6" width="81.9" height="6"/>
	<rect id="Rectangle_839" x="36.2" y="22.3" class="st7" width="31.1" height="2"/>
	<rect id="Rectangle_840" x="36.2" y="30.8" class="st8" width="31.1" height="2"/>
	<rect id="Rectangle_841" x="36" y="26.6" class="st3" width="18.3" height="2"/>
	<rect id="Rectangle_842" x="36" y="35.1" class="st9" width="12.5" height="2"/>
	<rect id="Rectangle_843" x="50.7" y="35.1" class="st10" width="12.5" height="2"/>
	<rect id="Rectangle_844" x="57" y="66.7" class="st7" width="79.2" height="3.8"/>
	<rect id="Rectangle_845" x="57" y="75" class="st7" width="36" height="3.8"/>
	<rect id="Rectangle_846" x="100.2" y="75" class="st10" width="36" height="3.8"/>
	<rect id="Rectangle_847" x="57" y="83.3" class="st7" width="79.2" height="3.8"/>
	<rect id="Rectangle_848" x="57" y="91.6" class="st7" width="79.2" height="3.8"/>
	
		<linearGradient id="Rectangle_849_1_" gradientUnits="userSpaceOnUse" x1="76.6837" y1="149.0108" x2="76.6837" y2="150.0108" gradientTransform="matrix(12.364 0 0 -4.699 -885.7076 804.2939)">
		<stop  offset="0" style="stop-color:#808080;stop-opacity:0.251"/>
		<stop  offset="0.54" style="stop-color:#808080;stop-opacity:0.122"/>
		<stop  offset="1" style="stop-color:#808080;stop-opacity:0.102"/>
	</linearGradient>
	<rect id="Rectangle_849" x="56.2" y="99.4" class="st11" width="12.4" height="4.7"/>
	<rect id="Rectangle_850" x="57" y="99.8" class="st6" width="10.7" height="3.8"/>
	<rect id="Rectangle_851" x="76.5" y="99.8" class="st10" width="10.7" height="3.8"/>
	
		<linearGradient id="Rectangle_853_1_" gradientUnits="userSpaceOnUse" x1="88.4849" y1="123.129" x2="88.4849" y2="124.129" gradientTransform="matrix(63.775 0 0 -14.323 -5537.4399 1890.0488)">
		<stop  offset="0" style="stop-color:#808080;stop-opacity:0.251"/>
		<stop  offset="0.54" style="stop-color:#808080;stop-opacity:0.122"/>
		<stop  offset="1" style="stop-color:#808080;stop-opacity:0.102"/>
	</linearGradient>
	<rect id="Rectangle_853" x="73.8" y="112.1" class="st12" width="63.8" height="14.3"/>
	<rect id="Rectangle_854" x="74.9" y="113.7" class="st6" width="61.3" height="11"/>
	<rect id="Rectangle_855" x="74.9" y="113.7" class="st3" width="61.3" height="11"/>
	
		<linearGradient id="Rectangle_856_1_" gradientUnits="userSpaceOnUse" x1="86.8542" y1="116.353" x2="86.8542" y2="117.353" gradientTransform="matrix(40.503 0 0 -30.882 -3400.5337 3625.0269)">
		<stop  offset="0" style="stop-color:#808080;stop-opacity:0.251"/>
		<stop  offset="0.54" style="stop-color:#808080;stop-opacity:0.122"/>
		<stop  offset="1" style="stop-color:#808080;stop-opacity:0.102"/>
	</linearGradient>
	<rect id="Rectangle_856" x="97.1" y="0.9" class="st13" width="40.5" height="30.9"/>
	<rect id="Rectangle_857" x="98.6" y="2.9" class="st6" width="37.6" height="26.9"/>
	<rect id="Rectangle_858" x="98.6" y="2.9" class="st3" width="37.6" height="26.9"/>
</g>
<path id="Path_537" class="st14" d="M177.2,308.9c0,0-17.8,10.9-28.8,16.3s-11.7,20-11.7,20s56.4,3.5,117.2-41.1
	c0.1-0.1,0-0.4,0.2-0.6C306.6,264.1,199,289,199,289L177.2,308.9z"/>
<g id="Group_1483" transform="translate(179.283 148.706)">
	<ellipse id="Ellipse_151" class="st15" cx="66" cy="11.1" rx="20.3" ry="20.3"/>
	<path id="Path_527" class="st16" d="M52,20.4c0,0-0.8,16.4-10.9,21.1s16.4,21.1,16.4,21.1l19.5-10.1c0,0-4.7-22.6-0.8-27.3
		S52,20.4,52,20.4z"/>
	<path id="Path_528" class="st17" d="M80,41.5c0,0-27.2,18.5-35.4-2.4c0,0-20,7.9-19.2,13.4s-1.6,80.4-1.6,80.4s32.8,9.4,42.1,0
		S80,41.5,80,41.5z"/>
	<path id="Path_529" class="st18" d="M74.6,34.5l3.1,3.1c0,0,32.8,14,32,21.8s-15.6,44.5-15.6,44.5s-7.8,28.1-6.2,35.9
		s1.5,4.3,1.6,5.3s-6.8,4.7-8.2,6s-9.3,6.3-11.4,7.3s-3.8-3.1-9.3-5.4s-9.4-20.3-5.5-35.9S59.8,68,59.8,68l10.9-16.4
		C70.7,51.6,70.8,40,74.6,34.5z"/>
	<path id="Path_530" class="st18" d="M49.5,31.4c0,0-6.2-0.8-7.7,3.1S13.7,47,13.7,50.1s7.8,42.1,7.8,42.1l1.6,22.6L9,125
		c0,0,3.1,10.1-0.8,14s-8.6,14-3.9,15.6s33.6-9.4,34.3-21.1s-2.3-20.3,3.1-28.9S48,62.6,48,62.6L49.5,31.4z"/>
	<path id="Path_531" class="st19" d="M84.9-6.4c-3-4.9-7.8-8.6-13.3-10.2l-4.1,3.3l1.6-3.8c-1.3-0.2-2.7-0.3-4-0.2l-3.7,4.7l1.5-4.6
		c-6.4,0.8-12.2,4.3-16,9.5C42.3-1,41.5,8.4,46.1,15.1c1.3-3.9,2.8-7.5,4-11.4c1,0.1,2,0.1,3,0l1.5-3.6l0.4,3.4
		c4.8-0.4,11.8-1.3,16.3-2.2l-0.4-2.6L73.6,1c1.4-0.3,2.2-0.6,2.1-0.8c3.3,5.4,7.5,8.9,10.8,14.3C87.8,6.8,89.2,0.5,84.9-6.4z"/>
	<ellipse id="Ellipse_152" class="st15" cx="84.7" cy="11.8" rx="1.6" ry="2.7"/>
	<path id="Path_532" class="st20" d="M76.3,151H41.1c-1.8,0-3.3-1.5-3.3-3.3c0,0,0,0,0,0l-1.6-46.1c0-1.8,1.5-3.3,3.3-3.3l0,0h38.4
		c1.8,0,3.3,1.5,3.3,3.3c0,0,0,0,0,0l-1.6,46.1C79.7,149.5,78.2,151,76.3,151z"/>
	<path id="Path_533" class="st16" d="M90.4,129.6c0,0-31.1,10.7-23.4,17.5s28.2-10,28.2-10L90.4,129.6z"/>
	<path id="Path_534" class="st18" d="M97.2,54.8c0,0,11.7-2.3,14.8,7.8s18.7,47.6,14,53.1s-21.8,20.3-27.3,23.4s-7.8,3.1-7.8,3.1
		l-7,3.1l-2.3-17.9l8-4.7l12.3-10.1l-7-21.1L97.2,54.8z"/>
	<path id="Path_535" class="st16" d="M27.6,124.1c0,0,31.1,10.7,23.4,17.5s-28.2-10-28.2-10L27.6,124.1z"/>
	<path id="Path_536" class="st18" d="M20.7,49.3c0,0-11.7-2.3-14.8,7.8s-18.7,47.6-14,53.1s21.8,20.3,27.3,23.4s7.8,3.1,7.8,3.1
		l7,3.1l2.3-17.9l-8-4.7L16.1,107l11.3-27.7L20.7,49.3z"/>
	<path id="Path_629" class="st16" d="M66-6C77.2-6,86.3,3,86.3,14.2l0,0c0,11.2-9.1,25.5-20.3,25.5S45.7,25.4,45.7,14.2
		C45.7,3,54.8-6,66-6C66-6,66-6,66-6z"/>
	<path id="Path_628" class="st14" d="M84.9-6.4c-3-4.9-7.8-8.6-13.3-10.2l-4.1,3.3l1.6-3.8c-1.3-0.2-2.7-0.3-4-0.2l-3.7,4.7l1.5-4.6
		c-6.4,0.8-12.2,4.3-16,9.5C42.3-1,41.5,8.4,46.1,15.1c1.3-3.9,4-2.5,5.3-6.4c1,0.1,2,0.1,3,0l1.5-3.6l0.4,3.4
		C61,8.2,68.1,7.3,72.6,6.5l-0.4-2.6L74.8,6c1.4-0.3,2.2-0.6,2.1-0.8c3.3,5.4,6.2,3.8,9.6,9.2C87.8,6.8,89.2,0.5,84.9-6.4z"/>
</g>
<g id="Ellipse_168" transform="translate(259 268.418)">
	<circle class="st2" cx="-6.5" cy="-14.9" r="2.5"/>
	<circle class="st21" cx="-6.5" cy="-14.9" r="2"/>
</g>
<g id="Group_1514" transform="translate(67.333 190.288)" class="st22">
	<path id="Path_439" class="st23" d="M25.5,139.9c0,0.3,0,0.5-0.1,0.8c-2.2-0.9-4.4-1.8-6.6-2.8c-1.1-0.2-2.2-0.7-3-1.5
		c-0.6-0.3-1.3-0.6-1.9-1c0.1-0.3,0.3-0.6,0.5-0.9c1.3-2.7,4.6-3.8,7.3-2.5c1.2,0.6,2.1,1.6,2.6,2.8
		C25.1,136.4,25.5,138.2,25.5,139.9z"/>
	<path id="Path_440" class="st23" d="M25.8,129.9c0,1.8-0.5,3.5-1.5,5c-1,1.8-2.9,3-5.1,3l-0.4,0c-1.1-0.2-2.2-0.7-3-1.5
		c-0.6-0.5-1-1.1-1.4-1.8c-1.6-3.2-1.5-7,0.3-10c1.3-2.7,4.6-3.8,7.3-2.5c1.2,0.6,2.1,1.6,2.6,2.8C25.5,126.4,25.9,128.2,25.8,129.9
		z"/>
	
		<ellipse id="Ellipse_118" transform="matrix(3.158516e-02 -0.9995 0.9995 3.158516e-02 -100.4581 135.7867)" class="st23" cx="19.8" cy="119.7" rx="8.2" ry="6.3"/>
	
		<ellipse id="Ellipse_119" transform="matrix(3.158516e-02 -0.9995 0.9995 3.158516e-02 -90.146 126.4038)" class="st23" cx="20.2" cy="109.7" rx="8.2" ry="6.3"/>
	
		<ellipse id="Ellipse_120" transform="matrix(2.998030e-02 -0.9996 0.9996 2.998030e-02 -79.114 116.5981)" class="st23" cx="20.5" cy="99.1" rx="8.2" ry="6.3"/>
	<path id="Path_441" class="st6" d="M-0.8,30.4c-0.8-1.1-1.6-2.3-2.2-3.5l16.5-2.2l-17.8-0.4C-7.5,16.7-7.4,8.1-4.1,0.5l23.5,13.1
		L-2.1-3.2c8.7-14.1,27.2-18.4,41.3-9.7c14.1,8.7,18.4,27.2,9.7,41.3c-0.8,1.2-1.6,2.4-2.6,3.5c1.3,1.7,2.4,3.6,3.2,5.6L27.9,47.9
		l23-6.9c2.9,9.7,0.8,20.3-5.7,28c9.8,13.3,7,32.1-6.3,41.9s-32.1,7-41.9-6.3c-8.2-11.1-7.7-26.5,1.2-37.1
		C-10.2,56.4-9.7,41-0.8,30.4L-0.8,30.4z"/>
	<path id="Path_442" class="st24" d="M52.2,50.7c-0.2,6.7-2.7,13.2-7,18.3c9.8,13.3,7,32.1-6.3,41.9s-32.1,7-41.9-6.3
		c-8.2-11.1-7.7-26.5,1.2-37.1C-5.8,62.3,52.3,47.3,52.2,50.7z"/>
</g>
</svg>
