<?xml version="1.0" encoding="utf-8"?>
<!-- Generator: Adobe Illustrator 25.3.1, SVG Export Plug-In . SVG Version: 6.00 Build 0)  -->
<svg version="1.1" id="Layer_1" xmlns="http://www.w3.org/2000/svg" xmlns:xlink="http://www.w3.org/1999/xlink" x="0px" y="0px"
	 viewBox="0 0 378 378" style="enable-background:new 0 0 378 378;" xml:space="preserve">
<style type="text/css">
	.st0{fill:#127FC4;}
	.st1{fill:none;}
	.st2{fill:#A0616A;}
	.st3{fill:url(#SVGID_1_);}
	.st4{opacity:0.6;fill:none;stroke:#535461;stroke-width:3;stroke-miterlimit:10;enable-background:new    ;}
	.st5{fill:#118ACB;}
	.st6{fill:#76DEFF;}
	.st7{opacity:0.3;fill:none;stroke:#535461;stroke-miterlimit:10;enable-background:new    ;}
	.st8{opacity:0.1;}
	.st9{fill:#333333;}
	.st10{fill:#A9D175;}
	.st11{fill:#707070;}
	.st12{opacity:0.1;enable-background:new    ;}
</style>
<path id="Path_232_2_" class="st0" d="M305.2,285.5c-73.2,68.3-173.4,79.8-223.7,25.8s-107.6-148.7-34.4-217s235.7-63.4,286.1-9.4
	S378.4,217.2,305.2,285.5z"/>
<path class="st1" d="M305.2,285.5c-73.2,68.3-173.4,79.8-223.7,25.8s-107.6-148.7-34.4-217s235.7-63.4,286.1-9.4
	S378.4,217.2,305.2,285.5z"/>
<path id="Path_593" class="st2" d="M316.2,148.3c0,0,9.7-40.5-4.5-39.4c-14.2,1.1-8.4,37-8.4,37L316.2,148.3z"/>
<linearGradient id="SVGID_1_" gradientUnits="userSpaceOnUse" x1="72.8373" y1="268.7567" x2="129.1358" y2="268.7567">
	<stop  offset="0" style="stop-color:#808080;stop-opacity:0.251"/>
	<stop  offset="0.54" style="stop-color:#808080;stop-opacity:0.122"/>
	<stop  offset="1" style="stop-color:#808080;stop-opacity:0.102"/>
</linearGradient>
<path class="st3" d="M102.2,285.6l0.3-2.7c6.7-6,11.1-22.2,11.1-22.2c-0.1,0-0.2,0-0.3,0.1c-3.3,0.6-6.3,2.1-8.7,4.4l0.8-7.1
	c12.4-2.7,17.4-19.1,17.4-19.1c-7.9,1.8-12.9,4.5-16,7.1l1.2-10.5c8.4,2.9,17.1-12.5,17.1-12.5l-0.3-0.1l0.2-0.1l-0.2,0.1
	c-9.3-2-14.3,3.3-15.9,5.5l0.1-1c-0.2,0.7-0.5,1.3-0.7,1.9v0c-0.7,1.8-1.3,3.5-1.8,5.3c-0.5,1.5-0.9,3-1.3,4.4v0
	c-0.5-5.8-4.6-10.6-10.3-11.8c0,0,1,20.4,8.9,17.1c-0.7,3-1.3,5.8-1.8,8.6c-0.3,1.8-0.6,3.6-0.9,5.3l0,0.1l0,0l0,0.1
	c-0.2,1.6-0.4,3.1-0.6,4.5c0.2-2.8-0.4-11-10-18.7c0,0-12.8,22.6,9.1,27l0.1,0.1l0-0.1l0.2,0l0.1-1.2c-0.3,4.8-0.2,9.7,0.1,14.5
	c0,0.3,0,0.7,0.1,1H75.9c-3.2,6.6-3.5,12.2-2.7,16.6c2.7,3.2,5.5,6.2,8.2,9.1c1.2,1.3,2.4,2.5,3.7,3.7h35.4
	c15.3-19.3,5.5-29.4,5.5-29.4H102.2z"/>
<path id="Path_601" class="st4" d="M100.8,292.8c0,0-6.3-27.3,7.6-62.6"/>
<path class="st5" d="M76.5,284.6c-3.7,7.5-3.5,14-1.9,19.1c2.3,2.6,4.6,5.2,6.9,7.6c1.1,1.2,2.3,2.4,3.5,3.6h34.6
	c14.8-18.1,5.3-30.3,5.3-30.3H76.5z"/>
<path id="Path_603" class="st6" d="M107.7,232.1c0,0,4.8-8.6,16.3-5.9c0,0-9.5,16.2-18.1,10.9L107.7,232.1z"/>
<path id="Path_604" class="st6" d="M104.7,241.1c-0.5-5.5-4.5-10-9.9-11.1c0,0,1,19.1,8.6,16L104.7,241.1z"/>
<path id="Path_605" class="st6" d="M101.5,254.1c0,0,1.8-9.2,20.2-13.1c0,0-5.9,19-21.1,18.2L101.5,254.1z"/>
<path id="Path_606" class="st6" d="M100,264.4c0,0,1.9-9.6-9.6-18.5c0,0-12.5,21.3,9,25.3L100,264.4z"/>
<path id="Path_607" class="st6" d="M99.7,277.6c0,0-1.3-13.6,13.2-16.2c0,0-5.3,18.9-13.2,22.3L99.7,277.6z"/>
<path id="Path_608" class="st7" d="M106.1,237.2c0,0,12.5-9.5,17.8-11.2"/>
<path id="Path_609" class="st7" d="M100.7,259.1c0,0,15.1-16.1,21.1-18.1"/>
<path id="Path_610" class="st7" d="M94.7,230.1c0,0,9.2,12.5,8.6,15.8"/>
<path id="Path_611" class="st7" d="M90.4,245.9c0,0,4.9,22.4,8.9,25.4"/>
<path id="Path_612" class="st7" d="M99.7,283.8c0,0,7.9-21.7,13.2-22.4"/>
<g id="Group_1505" transform="translate(9.127 237.575)" class="st8">
	<path id="Path_613" d="M115.7,47H67.3c-0.1,0.2-0.2,0.4-0.3,0.7h47.1c0,0,9.3,11.9-4.7,29.6h1.1C125.3,59.2,115.7,47,115.7,47z"/>
</g>
<path class="st9" d="M84.9,314.7c42.6,41.5,117,39.9,181.9,0H84.9z"/>
<path class="st2" d="M196.2,166.3L196.2,166.3c2.8,6.4,15.6,8.3,15.6,8.3c6.6-0.6,13-2.7,18.7-6.2c0-0.9-0.1-1.6-0.2-2.3
	c-0.6-2.8-1.2-5.6-1.5-8.3c6.2-5.6,10.2-14.6,10.2-24.6c0-17-11.4-30.7-25.4-30.7s-25.4,13.8-25.4,30.7c0,8.7,3,16.5,7.7,22.1
	C196.2,158.9,196.3,162.7,196.2,166.3z"/>
<path class="st10" d="M199.4,226.6"/>
<path class="st10" d="M315.3,131.4c-4.6,0.4-10.7,0.7-13.7-0.2c-0.1,0-0.2-0.1-0.3-0.1c-0.8-0.3-1.4-0.6-1.5-1.1l-6.7,29.5
	l-4.6,14.5l-34.7,0.8l-24.2-11.5c0,0,0.5,2,0.6,4.9c-5.7,3.5-12.1,5.6-18.7,6.2c0,0-12.9-1.9-15.6-8.3l-38.8,17.1c0,0,0,0.1,0.1,0.4
	h0c0,0-6.7,6.4-9.3,20.8c-0.1,0.6-0.2,1.3-0.3,2l-12.7,28.3l-8.7,19.3c-1.3,2.9-1.3,6.3,0.1,9.1c2.5,5.1,5.3,10,8.5,14.6
	c0.9,1.3,1.8,2.6,2.8,3.8l124.1-55l1.6-14.6l-0.3-1.1c21.8-3.3,43.5-9.9,46.1-14.7c1.8-3.4,2.7-5.7,4.5-14.5
	c0.7-3.3,1.3-6.8,1.9-10.3c1.5-8.4,2.8-17.2,3.9-24.4c1.3-9.4,2.2-16.1,2.2-16.1S318.8,131.1,315.3,131.4z"/>
<path id="Path_578" class="st9" d="M192.5,103.9l-4.7-1.9c0,0,9.9-10.9,23.7-10l-3.9-4.3c0,0,9.5-3.8,18.1,6.2
	c4.5,5.2,9.8,11.4,13,18.3h5.1l-2.1,4.7l7.4,4.7l-7.6-0.8c0.5,2.6,0.5,5.2,0.2,7.7c-0.3,2.6-1.6,4.9-3.7,6.6l0,0
	c0,0-5.9-12.2-5.9-14.1v4.7c0,0-4.7-4.3-4.7-7.1l-2.6,3.3l-1.3-5.2l-16,5.2l2.6-4.3l-9.9,1.4l3.9-5.2c0,0-11.2,6.2-11.6,11.4
	c-0.4,5.2-3.7,10.2-3.7,10.2S180,111,192.5,103.9z"/>
<path class="st11" d="M282.9,226.6h-57.4v-1.2h-26v1.2h-57.7c-2.1,0-3.9,1.7-3.9,3.9v78.6c0,0.4,0.1,0.7,0.2,1h-1.4c0,0,0,0,0,0
	c-2.5,0-4.6,2-4.6,4.5h134.8c6.8-4.2,13.4-8.7,20-13.7v-70.5C286.8,228.4,285,226.6,282.9,226.6z"/>
<path class="st12" d="M247,325.6H98.1c0.7,0.5,1.5,1,2.2,1.5h143.6C245,326.6,246,326.1,247,325.6z"/>
</svg>
