<?xml version="1.0" encoding="utf-8"?>
<!-- Generator: Adobe Illustrator 25.3.1, SVG Export Plug-In . SVG Version: 6.00 Build 0)  -->
<svg version="1.1" id="Layer_1" xmlns="http://www.w3.org/2000/svg" xmlns:xlink="http://www.w3.org/1999/xlink" x="0px" y="0px"
	 viewBox="0 0 378 378" style="enable-background:new 0 0 378 378;" xml:space="preserve">
<style type="text/css">
	.st0{fill:#127FC4;}
	.st1{fill:#A9D175;}
	.st2{fill:#3F3D56;}
	.st3{fill:none;}
	.st4{fill:#FBBEBE;}
	.st5{opacity:0.1;enable-background:new    ;}
	.st6{fill:#118ACB;}
	.st7{fill:#333333;}
	.st8{fill:#F2F2F2;}
	.st9{fill:#E4E4E4;}
	.st10{opacity:0.1;fill:#707070;enable-background:new    ;}
	.st11{fill:#47465A;}
	.st12{fill:#A0616A;}
</style>
<path id="Path_232_1_" class="st0" d="M288.5,323.5c-78.6,47.3-176.6,28.6-218.8-41.6s-86.2-184-7.6-231.2s234.8,7,277,77.2
	S367.2,276.2,288.5,323.5z"/>
<g id="Group_1511" transform="translate(-203 44.078)">
	<path id="Path_618" class="st1" d="M382.4,113.9l6,10.4l6,10.4h-24l6-10.4L382.4,113.9z"/>
	<rect id="Rectangle_928" x="323.1" y="93.5" class="st1" width="25.1" height="25.1"/>
	<ellipse id="Ellipse_167" class="st1" cx="366" cy="61.4" rx="16" ry="15.5"/>
	<path id="Path_619" class="st2" d="M380.8,88.3c0-1.5,1.2-2.7,2.7-2.7c1.5,0,2.7,1.2,2.7,2.7c0,1.5-1.2,2.7-2.7,2.7
		S380.8,89.8,380.8,88.3L380.8,88.3z M381.3,88.3c0,1.2,1,2.2,2.2,2.2c1.2,0,2.2-1,2.2-2.2c0-1.2-1-2.2-2.2-2.2
		C382.3,86.1,381.3,87.1,381.3,88.3L381.3,88.3z"/>
	<path id="Path_620" class="st2" d="M357.8,134.8l-3.9-4.2l4.2-3.9l3.9,4.2L357.8,134.8z M354.5,130.6l3.3,3.6l3.6-3.3l-3.3-3.6
		L354.5,130.6z"/>
	<path id="Path_621" class="st2" d="M325.4,74.8l-3.2-3.4l3.4-3.2l3.2,3.4L325.4,74.8z M322.7,71.4l2.7,2.9l2.9-2.7l-2.7-2.9
		L322.7,71.4z"/>
	<path id="Path_622" class="st2" d="M370.3,79.5c-12.3,0-22.3-10-22.3-22.3c0-12.3,10-22.3,22.3-22.3c12.3,0,22.3,10,22.3,22.3
		C392.6,69.5,382.6,79.5,370.3,79.5L370.3,79.5z M370.3,35.4c-12,0-21.8,9.8-21.8,21.8c0,12,9.8,21.8,21.8,21.8
		c12,0,21.8-9.8,21.8-21.8C392.1,45.2,382.4,35.4,370.3,35.4C370.3,35.4,370.3,35.4,370.3,35.4L370.3,35.4z"/>
	
		<rect id="Rectangle_930" x="347.3" y="80.4" transform="matrix(0.4331 -0.9013 0.9013 0.4331 127.9618 364.748)" class="st2" width="13.3" height="0.4"/>
	
		<rect id="Rectangle_931" x="367.6" y="95.1" transform="matrix(0.476 -0.8795 0.8795 0.476 96.4604 380.8935)" class="st2" width="0.4" height="28.8"/>
	<path id="Path_623" class="st2" d="M355.4,118.9h-32.5V86.4h32.5V118.9z M323.4,118.5H355V86.9h-31.6L323.4,118.5z"/>
	<path id="Path_624" class="st2" d="M403.6,134.9H370l16.8-29.1L403.6,134.9z M370.8,134.5h32.1l-16-27.8L370.8,134.5z"/>
</g>
<path class="st3" d="M288.5,323.5c-78.6,47.3-176.6,28.6-218.8-41.6s-86.2-184-7.6-231.2s234.8,7,277,77.2S367.2,276.2,288.5,323.5z
	"/>
<g id="Group_1481_1_" transform="translate(-5823.229 -21266.738)">
	<path id="Path_355_1_" class="st4" d="M6141.2,21500.4l-1.5,1.8l0,0l-6.3,7.3l-8.2,0.5l-13.1,0.8c0,0-17.7-21.3-14.3-25.9
		c1.1-1.8,1.5-3.9,1.2-6c0-0.3-0.1-0.6-0.1-0.9c-0.4-2.2-1.1-4.4-2.1-6.4l0.4-0.2l0.3-0.1l15.4-7l3.8-1.7c0.2,1,0.5,2.1,1,3
		c0.1,0.1,0.2,0.2,0.2,0.4c5.3,8.7,22.2,3.2,22.2,3.2L6141.2,21500.4z"/>
	<path id="Path_380_1_" class="st4" d="M6073.1,21518.6c-0.5,1.3-1.3,2.5-2.2,3.5c-6.5,7.9-25.1,24.2-28.7,27.2
		c-4.3,3.6-14,2.3-14,2.3l-17.9,0.3c0,0-17.8-0.7-19.2-21.7s20.8,6.4,20.8,6.4s5.6,1.1,7.4,0.9c2.6-0.3,8.1-3.3,8.1-3.3
		s3.8-2.8,7.2-5.1s16.5-17.7,18.8-23c1.5-3.4,6.2-9,9.5-12.6c1.9-2.1,3.3-3.5,3.3-3.5S6074.1,21514.1,6073.1,21518.6z"/>
	<path id="Path_381_1_" class="st5" d="M6073.1,21518.6c-0.5,1.3-1.3,2.5-2.2,3.5c-6.6-6.7-8-20.1-8.1-28.6c1.9-2.1,3.3-3.5,3.3-3.5
		S6074.1,21514.1,6073.1,21518.6z"/>
	<path id="Path_382_1_" class="st5" d="M6139.7,21502.2L6139.7,21502.2l-6.3,7.3l-8.2,0.5l-13.1,0.8c0,0-17.7-21.3-14.3-25.9
		c1.1-1.8,1.5-3.9,1.2-6c0-0.3-0.1-0.6-0.1-0.9c-0.4-2.2-1.1-4.4-2.1-6.4l0.4-0.2l0.3-0.1c0.7,1.9,1.2,3.9,1.4,5.9
		c0,0.3,0.1,0.6,0.1,0.9c0.1,1,0.3,2.2,0.4,3.5c1,11.7,8.4,16.1,11.7,17.5c1.1,0.4,2.1,0.9,3.1,1.5c3.2,1.8,6.9,2.4,10.5,1.9
		c8.2-1.1,14.9-7,14.9-7v5.9L6139.7,21502.2z"/>
	<path id="Path_384_1_" class="st4" d="M6139.6,21529.9l-2,4c0,0-20.3,6.8-28.7,8.4c-8.4,1.6-26.5-0.4-27.8,3
		c-1.3,3.5,5.5,8.2,5.5,8.2l21.7-0.3l41,3.2c0,0,19.7-30.4,14.7-39.9S6139.6,21529.9,6139.6,21529.9z"/>
	<path id="Path_385_1_" class="st5" d="M6095.5,21486.5c0,0-9.8,8.1-8,12C6089.3,21502.4,6095.5,21486.5,6095.5,21486.5z"/>
	<path id="Path_625_1_" class="st6" d="M6055,21502.6c3.2,5,15,20.2,15,20.2l6.5-4.9c0,0,0.2,6.8,0,14.9c-0.2,8.1,0,20,0,20
		l62.1-18.2c1.2-10.6,27.5-6.9,27.1-17.5c-0.8-15.4-1.2-31.3-1.2-31.3s-1.5-19.4-18.6-11c-17.1,8.4-24.7-7.2-24.7,4
		c0,11.2-11.1,40.4-21.3,7c-10.2-33.4-20-5.2-20-5.2S6051.8,21497.6,6055,21502.6z"/>
	<path id="Path_387_1_" class="st5" d="M6087.4,21504.1c0,0-2.3,10.7-4.6,15.2C6080.5,21523.8,6087.4,21504.1,6087.4,21504.1z"/>
	<path id="Path_388_1_" class="st5" d="M6120.1,21471.1c-3.9,7.1-11,11.9-19,12.9l0,0c-6.2,0.7-12.5-0.9-17.6-4.6
		c5.8-2.1,13.3-4.6,13.3-4.6s1.3-0.9,2.6,1.8l19.5-8.9C6119,21468.9,6119.4,21470.1,6120.1,21471.1z"/>
	<path id="Path_389_1_" class="st4" d="M6123.1,21458.3c0,4.4-1.1,8.6-3.3,12.4c-1,1.8-2.3,3.5-3.7,5c-4,4.2-9.4,6.8-15.2,7.5l0,0
		c-0.9,0.1-1.9,0.2-2.8,0.2c-12.7,0-23.4-9.6-24.9-22.2c-0.1-0.9-0.2-1.9-0.2-2.8c0-13.8,11.2-25,25-25
		c13.7-0.2,24.9,10.7,25.1,24.4C6123.1,21458,6123.1,21458.1,6123.1,21458.3z"/>
	<path id="Path_393_1_" class="st5" d="M6159.9,21495c0,0-21,12.9-20,24.2C6139.9,21519.2,6151.6,21498.5,6159.9,21495z"/>
	<path id="Path_394_1_" class="st5" d="M6141.7,21507.2l0.1,17.6c-4,0.2-7.7-0.3-10.7-2.9c-2-1.8-3.4-4.2-3.9-6.9
		c-0.5-2.2-0.6-4.4-0.5-6.6v-0.1c0.2-4.9,1.4-9.7,0.8-14.6s-3.5-9.9-8.3-11c-1-0.1-1.9-0.4-2.7-1c-0.6-0.9-0.9-2-0.6-3.1l0.1-1.8
		v-1.4c0-8.5-6-15.8-14.3-17.4h-0.2c-1.3-0.4-2.7-0.4-4.1-0.2c-2.6,0.6-4.2,3.1-6.6,4.3c-4.5,2.3-12.1-0.2-16.8-1
		c-0.3,0-0.6-0.1-0.9-0.2c-0.1-0.9-0.2-1.9-0.2-2.8c0-13.8,11.2-25,25-25s25,11.2,25,25c0,4.4-1.1,8.6-3.3,12.4
		c0.1,0.1,0.2,0.2,0.2,0.4c5.3,8.7,22.2,3.2,22.2,3.2l1,31.1L6141.7,21507.2z"/>
</g>
<path class="st7" d="M77.5,293.4c45.6,60.6,136.9,74.6,211,30c22.2-13.3,39.2-29.1,51.3-46.5L77.5,293.4z"/>
<path class="st5" d="M98.6,315.6l205.9-2.8c5.5-4.1,10.6-8.3,15.3-12.7l-228.4,9C93.7,311.4,96.1,313.6,98.6,315.6z"/>
<path class="st8" d="M332.6,286.5l-23.4-3l-68.5,2.5l24.8,7.8l64.4-4.2C330.9,288.5,331.8,287.5,332.6,286.5z"/>
<path id="Path_485_1_" class="st9" d="M231.8,286.1v3.9l-37.5,8.5l-3.7-0.8l-0.6-0.1l-27-14.5L231.8,286.1z"/>
<path id="Path_486_1_" class="st10" d="M231.6,286.1v3.9l-37.5,8.6l-3.7-0.8l-0.6-4.1L231.6,286.1z"/>
<path id="Path_487_1_" class="st11" d="M188.5,292.3c0.7-0.3,14.5-3,14.5-3l-25-2.3L188.5,292.3z"/>
<path id="Path_489_1_" class="st11" d="M279.1,255.3l2.3,2L260,287.6c0,0-3.3,0.3-2.3-1.3L279.1,255.3z"/>
<path id="Path_490_1_" class="st11" d="M279.8,258.2l2.3-3l-1-0.7l-2.3,2.6L279.8,258.2z"/>
<path id="Path_492_1_" class="st9" d="M65.6,233.5l96.5,0.9c1.4,0,2.6,0.8,3.2,2l26,56.9c0.8,1.7,0,3.8-1.7,4.6
	c-0.5,0.2-1.1,0.3-1.6,0.3L91.1,295c-1.3,0-2.5-0.8-3.1-2l-25.6-54.5c-0.8-1.8,0-3.8,1.7-4.7C64.5,233.6,65.1,233.5,65.6,233.5z"/>
<path id="Path_493_1_" class="st4" d="M302.7,271.4c0,0-22,5.2-26.6,2.9c-4.6-2.3-18.4-8.2-22.7,3.9c-3.4,9.8,16.7,10.4,24.6,10.3
	c1.9,0,3.8-0.9,5-2.4l0,0c0,0,46.8-0.1,51.3-10.2C338.8,265.8,307.3,269.4,302.7,271.4z"/>
<path id="Path_395_1_" class="st12" d="M268.6,195.1c2.3-1.2,4-3.7,6.6-4.3c1.4-0.2,2.8-0.1,4.1,0.2h0.2c8.8,1.7,15,9.8,14.3,18.8
	l-0.1,1.8c-0.2,1,0,2.1,0.6,3c0.8,0.6,1.7,0.9,2.7,1c4.8,1,7.7,6.1,8.3,11s-0.5,9.8-0.8,14.6c-0.3,4.8,0.7,10.3,4.4,13.5
	c5.8,5,14.6,2.2,22.3,1.7c-3.4,0-6-3.5-6.1-6.9c-0.1-3.4,1.3-6.6,2.8-9.7c1.5-3.1,2.9-6.4,2.6-9.7c-0.4-4.6-4.1-8.4-5.5-12.8
	c-1.6-5.2-0.1-10.8,0.7-16.2c1.4-10.1-0.8-21.5-8.6-28.1c-3.3-2.7-7.3-4.4-10.9-6.7c-6.5-4.1-11.6-10.1-18.1-14.1
	s-15.7-5.5-21.4-0.4c-2.2,2-3.6,4.7-5.9,6.6c-4.4,3.7-11.5,3.8-15,8.4c-3.1,3.9-2.2,9.6-1.3,14.5c1.3,6.5,0.6,11.6,7.6,12.8
	C256.5,194.9,264,197.3,268.6,195.1z"/>
<path id="Path_396_1_" class="st5" d="M326.1,253.4c-5.6,0.7-11.1,1-15.2-2.5c-3.7-3.2-4.6-8.6-4.4-13.5s1.4-9.8,0.8-14.6
	c-0.6-4.8-3.5-9.9-8.3-11c-1-0.1-1.9-0.4-2.7-1c-0.6-0.9-0.9-2-0.6-3.1l0.1-1.8c0.7-9-5.4-17.1-14.3-18.8h-0.2
	c-1.3-0.4-2.7-0.4-4.1-0.2c-2.6,0.6-4.2,3.1-6.6,4.3c-4.5,2.3-12.1-0.2-16.8-1c-7-1.1-6.2-6.2-7.6-12.8c-0.7-3.7-1.4-7.7-0.4-11.2
	c-0.2,0.2-0.4,0.4-0.5,0.6c-3.1,3.9-2.2,9.6-1.3,14.5c1.3,6.5,0.6,11.6,7.6,12.8c4.8,0.8,12.3,3.3,16.8,1c2.3-1.2,4-3.7,6.6-4.3
	c1.4-0.2,2.8-0.1,4.1,0.2h0.2c8.8,1.7,15,9.8,14.3,18.8l-0.1,1.8c-0.2,1,0,2.1,0.6,3c0.8,0.6,1.7,0.9,2.7,1c4.8,1,7.7,6.1,8.3,11
	s-0.5,9.8-0.8,14.6c-0.3,4.8,0.7,10.3,4.4,13.5c5.8,5,14.6,2.2,22.3,1.7C329,256.3,327.1,255.2,326.1,253.4z"/>
</svg>
