<svg xmlns="http://www.w3.org/2000/svg" xmlns:xlink="http://www.w3.org/1999/xlink" width="119.765" height="119.766" viewBox="0 0 119.765 119.766">
  <defs>
    <clipPath id="clip-path">
      <rect id="Rectangle_1089" data-name="Rectangle 1089" width="119.765" height="119.765" fill="#fff"/>
    </clipPath>
  </defs>
  <g id="noun_podcast_2474251" transform="translate(0 0.225)" opacity=".6">
    <g id="Group_2129" data-name="Group 2129" transform="translate(0 -0.225)">
      <g id="Group_2128" data-name="Group 2128">
        <g id="Group_2127" data-name="Group 2127">
          <g id="Group_2126" data-name="Group 2126" clip-path="url(#clip-path)">
            <g id="Group_2125" data-name="Group 2125" transform="translate(9.356 22.456)">
              <g id="Group_2114" data-name="Group 2114" transform="translate(29.597 37.427)">
                <g id="Group_2113" data-name="Group 2113" transform="translate(0 0)">
                  <rect id="Rectangle_1083" data-name="Rectangle 1083" width="39.298" height="43.04" transform="translate(0.344)" fill="none"/>
                  <path id="Path_983" data-name="Path 983" d="M834.17,1304.746a2.162,2.162,0,0,1-.947-.237,2.548,2.548,0,0,1-.71-.71,1.82,1.82,0,0,1-.237-.994,1.761,1.761,0,0,1,.237-.947,2.547,2.547,0,0,1,.71-.71,2.155,2.155,0,0,1,.947-.237h6.2v-12.542a16.7,16.7,0,0,1-3.029-.426,20.042,20.042,0,0,1-3.219-1.136,21.174,21.174,0,0,1-5.632-4.023,20.817,20.817,0,0,1-3.928-5.632,13.353,13.353,0,0,1-1.136-3.266,13.989,13.989,0,0,1-.426-3.407v-5.538a2.359,2.359,0,0,1,.237-.994,2.546,2.546,0,0,1,.71-.71,2.334,2.334,0,0,1,.947-.236,2.369,2.369,0,0,1,.994.236,2.554,2.554,0,0,1,.71.71,2.36,2.36,0,0,1,.237.994v5.538a11.011,11.011,0,0,0,.284,2.509,15.845,15.845,0,0,0,.9,2.509,15.481,15.481,0,0,0,3.219,4.591,15.69,15.69,0,0,0,4.5,3.219,12.227,12.227,0,0,0,2.508.9,11.024,11.024,0,0,0,2.508.284h3.124a11.335,11.335,0,0,0,2.508-.284,12.22,12.22,0,0,0,2.508-.9,15.9,15.9,0,0,0,4.544-3.219,16.4,16.4,0,0,0,3.218-4.591,15.858,15.858,0,0,0,.9-2.509,11.017,11.017,0,0,0,.284-2.509v-.237c0-.141-.047-.236-.047-.378v-4.923a1.862,1.862,0,0,1,.284-.994,2.047,2.047,0,0,1,.71-.71,2.005,2.005,0,0,1,.947-.236,2.16,2.16,0,0,1,.947.236,2.047,2.047,0,0,1,.71.71,1.821,1.821,0,0,1,.237.994v1.089h.047v4.449a13.994,13.994,0,0,1-.426,3.407,13.369,13.369,0,0,1-1.136,3.266,19.353,19.353,0,0,1-3.976,5.632,20.451,20.451,0,0,1-5.633,4.023,20.052,20.052,0,0,1-3.218,1.136,16.644,16.644,0,0,1-3.077.426v12.542h6.248a2.327,2.327,0,0,1,.947.237,2.543,2.543,0,0,1,.71.71,2.332,2.332,0,0,1,.237.947,2.364,2.364,0,0,1-.237.994,2.544,2.544,0,0,1-.71.71,2.335,2.335,0,0,1-.947.237Z" transform="translate(-823 -1262.683)" fill="#fff" fill-rule="evenodd"/>
                </g>
              </g>
              <g id="Group_2116" data-name="Group 2116" transform="translate(35.555 0)">
                <g id="Group_2115" data-name="Group 2115" transform="translate(0)">
                  <rect id="Rectangle_1084" data-name="Rectangle 1084" width="26.199" height="58.011" fill="none"/>
                  <path id="Path_984" data-name="Path 984" d="M959.791,474.023c-.521.142-.994.331-1.514.521a10.521,10.521,0,0,0-4.733,4.78,6.412,6.412,0,0,0-.521,1.515,5.535,5.535,0,0,0-.189,1.515v5.632h3.172a1.865,1.865,0,0,1,.994.284,1.494,1.494,0,0,1,.662.663,1.86,1.86,0,0,1,.285.994,1.7,1.7,0,0,1-.285.947,1.6,1.6,0,0,1-.662.71,1.82,1.82,0,0,1-.994.237h-3.172v2.035h3.219a2.159,2.159,0,0,1,.947.237,2.036,2.036,0,0,1,.71.71,1.821,1.821,0,0,1,.237.994,1.762,1.762,0,0,1-.237.947,2.037,2.037,0,0,1-.71.71,2.157,2.157,0,0,1-.947.237h-3.219v2.035h3.219a1.574,1.574,0,0,1,.947.237,1.475,1.475,0,0,1,.71.71,1.707,1.707,0,0,1,.284.947,1.863,1.863,0,0,1-.284.994,1.39,1.39,0,0,1-.71.663,1.6,1.6,0,0,1-.947.284h-3.219v11.028a5.315,5.315,0,0,0,.189,1.515,5.757,5.757,0,0,0,.521,1.515,10.145,10.145,0,0,0,4.78,4.828,6.061,6.061,0,0,0,1.467.521,5.533,5.533,0,0,0,1.514.189h2.13a5.2,5.2,0,0,0,1.467-.189,5.743,5.743,0,0,0,1.514-.521,10.145,10.145,0,0,0,4.78-4.828,6.729,6.729,0,0,0,.758-3.029V503.557h-3.408a1.707,1.707,0,0,1-.947-.284,1.6,1.6,0,0,1-.71-.663,1.82,1.82,0,0,1-.237-.994,1.664,1.664,0,0,1,.237-.947,1.709,1.709,0,0,1,.71-.71,1.664,1.664,0,0,1,.947-.237h3.408v-2.035h-3.408a2.363,2.363,0,0,1-.994-.237,1.9,1.9,0,0,1-.663-.71,1.827,1.827,0,0,1-.284-.947,1.863,1.863,0,0,1,.284-.994,1.9,1.9,0,0,1,.663-.71,2.365,2.365,0,0,1,.994-.237h3.408v-2.035H968.5a1.76,1.76,0,0,1-.947-.237,2.037,2.037,0,0,1-.71-.71,2.157,2.157,0,0,1-.236-.947,2.364,2.364,0,0,1,.236-.994,1.9,1.9,0,0,1,.71-.663,1.828,1.828,0,0,1,.947-.284h3.455v-5.632a8.26,8.26,0,0,0-.19-1.515,9.757,9.757,0,0,0-.568-1.515,10.082,10.082,0,0,0-1.988-2.792,10.693,10.693,0,0,0-2.792-1.988,14.271,14.271,0,0,0-1.514-.521,7.8,7.8,0,0,0-1.467-.189h-2.13A8.288,8.288,0,0,0,959.791,474.023Zm12.117-.189a13.06,13.06,0,0,1,2.792,3.881,9.508,9.508,0,0,1,.758,2.224,10.592,10.592,0,0,1,.332,2.414v32.232a13.052,13.052,0,0,1-1.089,4.686,13.793,13.793,0,0,1-2.745,3.881,14.006,14.006,0,0,1-3.928,2.745,9.648,9.648,0,0,1-2.225.8,10.413,10.413,0,0,1-2.366.284h-2.13a10.5,10.5,0,0,1-2.414-.284,9.636,9.636,0,0,1-2.225-.8,13.788,13.788,0,0,1-3.881-2.745,13.216,13.216,0,0,1-2.7-3.928,9.635,9.635,0,0,1-.8-2.224,10.5,10.5,0,0,1-.284-2.414V482.353a10.5,10.5,0,0,1,.284-2.414,9.639,9.639,0,0,1,.8-2.224,13.63,13.63,0,0,1,2.7-3.881,13.79,13.79,0,0,1,3.881-2.745,12.966,12.966,0,0,1,2.272-.8,9.814,9.814,0,0,1,2.366-.284h2.13a10.41,10.41,0,0,1,2.366.284,12.5,12.5,0,0,1,2.225.8A13.783,13.783,0,0,1,971.908,473.834Z" transform="translate(-948.995 -469.789)" fill="#fff" fill-rule="evenodd"/>
                </g>
              </g>
              <g id="Group_2118" data-name="Group 2118" transform="translate(76.724 11.228)">
                <g id="Group_2117" data-name="Group 2117" transform="translate(0 0)">
                  <rect id="Rectangle_1085" data-name="Rectangle 1085" width="9.357" height="24.327" fill="none"/>
                  <path id="Path_985" data-name="Path 985" d="M1837.529,707.275a1.983,1.983,0,0,1-.521-.852,1.783,1.783,0,0,1-.047-.994,2.056,2.056,0,0,1,.473-.9,1.739,1.739,0,0,1,.852-.521,1.619,1.619,0,0,1,.947-.047,1.83,1.83,0,0,1,.9.473,14.461,14.461,0,0,1,2.035,2.414,15.921,15.921,0,0,1,1.421,2.84,17.989,17.989,0,0,1,1.135,6.39,18.257,18.257,0,0,1-1.088,6.342,16.6,16.6,0,0,1-3.408,5.585,2.175,2.175,0,0,1-.852.473,1.781,1.781,0,0,1-.994.047,2.349,2.349,0,0,1-.9-.474,2.059,2.059,0,0,1-.474-.9,1.761,1.761,0,0,1-.047-.994,1.889,1.889,0,0,1,.473-.852,11.844,11.844,0,0,0,2.6-4.213,15.091,15.091,0,0,0,.852-5.017,13.665,13.665,0,0,0-.9-5.017,11.112,11.112,0,0,0-1.041-2.13A9.684,9.684,0,0,0,1837.529,707.275Z" transform="translate(-1836.048 -703.856)" fill="#fff" fill-rule="evenodd"/>
                </g>
              </g>
              <g id="Group_2120" data-name="Group 2120" transform="translate(87.289 5.614)">
                <g id="Group_2119" data-name="Group 2119" transform="translate(0 0)">
                  <rect id="Rectangle_1086" data-name="Rectangle 1086" width="9.357" height="35.555" transform="translate(0.664)" fill="none"/>
                  <path id="Path_986" data-name="Path 986" d="M2042.529,597.227a1.453,1.453,0,0,1-.521-.852,1.763,1.763,0,0,1-.047-.994,1.9,1.9,0,0,1,.473-.852,1.615,1.615,0,0,1,.852-.521,1.754,1.754,0,0,1,.994-.047,1.9,1.9,0,0,1,.853.473,16.766,16.766,0,0,1,2.84,3.455,21.789,21.789,0,0,1,2.035,4.07,26.4,26.4,0,0,1,1.657,9.277,27.45,27.45,0,0,1-1.562,9.135,23.187,23.187,0,0,1-4.875,8,1.615,1.615,0,0,1-.852.521,1.44,1.44,0,0,1-.994.047,1.892,1.892,0,0,1-.852-.473,1.615,1.615,0,0,1-.521-.852,1.783,1.783,0,0,1-.047-.994,2.368,2.368,0,0,1,.473-.9,17.9,17.9,0,0,0,4.023-6.673,23.191,23.191,0,0,0,1.373-7.81,22.082,22.082,0,0,0-1.419-7.9,17.08,17.08,0,0,0-1.656-3.36A13.8,13.8,0,0,0,2042.529,597.227Z" transform="translate(-2041.91 -593.448)" fill="#fff" fill-rule="evenodd"/>
                </g>
              </g>
              <g id="Group_2122" data-name="Group 2122" transform="translate(12.368 11.228)">
                <g id="Group_2121" data-name="Group 2121" transform="translate(0 0)">
                  <rect id="Rectangle_1087" data-name="Rectangle 1087" width="7.485" height="24.327" transform="translate(0.731)" fill="none"/>
                  <path id="Path_987" data-name="Path 987" d="M464.49,703.961a1.781,1.781,0,0,1,.994.047,2.309,2.309,0,0,1,.852.521,1.6,1.6,0,0,1,.426.9,1.442,1.442,0,0,1-.047.994,1.615,1.615,0,0,1-.521.852,9.675,9.675,0,0,0-1.42,1.657,11.105,11.105,0,0,0-1.041,2.13,13.67,13.67,0,0,0-.9,5.017,15.1,15.1,0,0,0,.852,5.017,11.848,11.848,0,0,0,2.6,4.213,1.892,1.892,0,0,1,.473.852,1.774,1.774,0,0,1,0,.994,2.14,2.14,0,0,1-.521.9,1.891,1.891,0,0,1-.852.474,1.759,1.759,0,0,1-.994-.047,1.674,1.674,0,0,1-.852-.473,16,16,0,0,1-3.455-5.585A19.414,19.414,0,0,1,459,716.078a17.984,17.984,0,0,1,1.136-6.39,16.147,16.147,0,0,1,1.467-2.84,12.292,12.292,0,0,1,1.988-2.414A2.358,2.358,0,0,1,464.49,703.961Z" transform="translate(-459 -703.856)" fill="#fff" fill-rule="evenodd"/>
                </g>
              </g>
              <g id="Group_2124" data-name="Group 2124" transform="translate(0 5.614)">
                <g id="Group_2123" data-name="Group 2123" transform="translate(0 0)">
                  <rect id="Rectangle_1088" data-name="Rectangle 1088" width="11.228" height="35.555" fill="none"/>
                  <path id="Path_988" data-name="Path 988" d="M221.484,594.435a2.358,2.358,0,0,1,.9-.473,1.776,1.776,0,0,1,.994.047,1.816,1.816,0,0,1,.852.521,1.469,1.469,0,0,1,.426.852,1.774,1.774,0,0,1,0,.994,1.737,1.737,0,0,1-.521.852,15.92,15.92,0,0,0-2.272,2.745,20.154,20.154,0,0,0-1.657,3.36,23.557,23.557,0,0,0-.047,15.714,19.233,19.233,0,0,0,4.023,6.673,1.849,1.849,0,0,1,.473.9,1.774,1.774,0,0,1,0,.994,1.982,1.982,0,0,1-.521.852,1.894,1.894,0,0,1-.852.473,1.426,1.426,0,0,1-.994-.047,1.454,1.454,0,0,1-.852-.521,21.836,21.836,0,0,1-4.875-8,27.518,27.518,0,0,1,.047-18.412,25.142,25.142,0,0,1,2.035-4.07A20.473,20.473,0,0,1,221.484,594.435Z" transform="translate(-214.18 -593.448)" fill="#fff" fill-rule="evenodd"/>
                </g>
              </g>
            </g>
          </g>
        </g>
      </g>
    </g>
  </g>
</svg>
