<svg xmlns="http://www.w3.org/2000/svg" width="45" height="45" viewBox="0 0 45 45"><g><g opacity=".6"><g opacity=".6"><path fill="#fff" d="M6.874 1.706a5.2 5.2 0 0 1 5.215 5.215 5.2 5.2 0 0 1-5.215 5.215A5.2 5.2 0 0 1 1.66 6.921c0-2.844 2.37-5.215 5.215-5.215zm0 12.09c2.18 0 4.077-1.043 5.357-2.608h23.891a.85.85 0 0 0 .854-.853V3.46a.85.85 0 0 0-.854-.853h-23.89C10.951 1.043 9.054 0 6.873 0 3.081.047 0 3.129 0 6.92a6.88 6.88 0 0 0 6.874 6.875z"/></g><g opacity=".6"><path fill="#fff" d="M6.868 27.762a5.198 5.198 0 0 1-5.21-5.215 5.198 5.198 0 0 1 5.21-5.215c2.89 0 5.21 2.323 5.21 5.215a5.198 5.198 0 0 1-5.21 5.215zM43.92 18.28h-31.7c-1.278-1.564-3.173-2.607-5.352-2.607-3.79 0-6.868 3.081-6.868 6.874 0 3.793 3.079 6.874 6.868 6.874 2.18 0 4.074-1.043 5.353-2.607H43.92a.85.85 0 0 0 .852-.854v-6.874c0-.474-.379-.806-.852-.806z"/></g><g opacity=".6"><path fill="#fff" d="M8.344 20.556l-2.086 2.37-1.043-1.043a.83.83 0 0 0-1.185 0 .83.83 0 0 0 0 1.185l1.659 1.66c.142.142.38.237.569.237h.047c.237 0 .427-.095.617-.285l2.702-3.034a.836.836 0 0 0-.095-1.185c-.38-.285-.9-.237-1.185.095z"/></g><g opacity=".6"><path fill="#fff" d="M6.867 43.388a5.197 5.197 0 0 1-5.21-5.215 5.197 5.197 0 0 1 5.21-5.215 5.197 5.197 0 0 1 5.21 5.215c0 2.844-2.32 5.215-5.21 5.215zm35.516-9.53H12.22c-1.279-1.564-3.173-2.607-5.352-2.607C3.078 31.251 0 34.333 0 38.125 0 41.918 3.078 45 6.867 45c2.179 0 4.073-1.043 5.352-2.608h30.164a.85.85 0 0 0 .853-.853v-6.827a.85.85 0 0 0-.853-.853z"/></g><g opacity=".6"><path fill="#fff" d="M9.197 35.85a.83.83 0 0 0-1.185 0l-1.138 1.138-1.138-1.138a.83.83 0 0 0-1.185 0 .83.83 0 0 0 0 1.185l1.138 1.138L4.55 39.31a.83.83 0 0 0 0 1.185c.142.142.38.237.569.237.19 0 .427-.095.569-.237l1.138-1.138 1.137 1.138c.143.142.38.237.57.237a.785.785 0 0 0 .568-.237.83.83 0 0 0 0-1.185L8.06 38.173l1.138-1.138a.83.83 0 0 0 0-1.185z"/></g><g opacity=".6"><path fill="#fff" d="M4.551 9.244c.142.143.38.237.569.237.19 0 .427-.094.569-.237l1.138-1.137 1.137 1.137c.143.143.38.237.57.237a.785.785 0 0 0 .568-.237.83.83 0 0 0 0-1.185L8.06 6.921l1.138-1.138a.83.83 0 0 0 0-1.185.83.83 0 0 0-1.185 0L6.874 5.736 5.736 4.598a.83.83 0 0 0-1.185 0 .83.83 0 0 0 0 1.185L5.69 6.921 4.55 8.06a.83.83 0 0 0 0 1.185z"/></g></g></g></svg>