<svg xmlns="http://www.w3.org/2000/svg" width="45" height="45" viewBox="0 0 45 45"><g><g><g><path fill="#4587a8" d="M6.874 1.707a5.2 5.2 0 0 1 5.215 5.215 5.2 5.2 0 0 1-5.215 5.215A5.2 5.2 0 0 1 1.66 6.922c0-2.845 2.37-5.215 5.215-5.215zm0 12.089c2.181 0 4.077-1.043 5.357-2.608h23.892a.85.85 0 0 0 .853-.853V3.461a.85.85 0 0 0-.853-.854H12.23C10.951 1.043 9.055 0 6.874 0 3.082.047 0 3.129 0 6.922a6.88 6.88 0 0 0 6.874 6.874z"/></g><g><path fill="#4587a8" d="M6.868 27.762a5.198 5.198 0 0 1-5.21-5.215 5.198 5.198 0 0 1 5.21-5.215c2.89 0 5.21 2.323 5.21 5.215a5.198 5.198 0 0 1-5.21 5.215zm37.052-9.481H12.22c-1.279-1.565-3.174-2.608-5.353-2.608-3.79 0-6.868 3.082-6.868 6.874 0 3.793 3.079 6.875 6.868 6.875 2.18 0 4.074-1.043 5.353-2.608H43.92a.85.85 0 0 0 .852-.853v-6.875c0-.474-.379-.805-.852-.805z"/></g><g><path fill="#4587a8" d="M8.344 20.556l-2.086 2.37-1.043-1.042a.83.83 0 0 0-1.185 0 .83.83 0 0 0 0 1.185l1.659 1.66c.142.141.38.236.569.236h.047c.237 0 .427-.095.617-.284l2.702-3.034a.836.836 0 0 0-.095-1.186c-.38-.284-.9-.237-1.185.095z"/></g><g><path fill="#4587a8" d="M6.867 43.388a5.197 5.197 0 0 1-5.21-5.215 5.197 5.197 0 0 1 5.21-5.215 5.197 5.197 0 0 1 5.21 5.215c0 2.845-2.32 5.215-5.21 5.215zm35.516-9.53H12.22c-1.279-1.564-3.173-2.607-5.352-2.607C3.078 31.251 0 34.333 0 38.126 0 41.918 3.078 45 6.867 45c2.179 0 4.073-1.043 5.352-2.607h30.164a.85.85 0 0 0 .853-.854v-6.827a.85.85 0 0 0-.853-.853z"/></g><g><path fill="#4587a8" d="M9.197 35.85a.83.83 0 0 0-1.185 0l-1.138 1.138-1.138-1.138a.83.83 0 0 0-1.185 0 .83.83 0 0 0 0 1.185l1.138 1.138-1.138 1.138a.83.83 0 0 0 0 1.185c.142.142.38.237.57.237.189 0 .426-.095.568-.237l1.138-1.138 1.138 1.138c.142.142.379.237.569.237a.785.785 0 0 0 .568-.237.83.83 0 0 0 0-1.185L8.06 38.173l1.138-1.138a.83.83 0 0 0 0-1.185z"/></g><g><path fill="#4587a8" d="M4.551 9.245c.142.142.38.237.57.237.189 0 .426-.095.568-.237l1.138-1.138 1.138 1.138c.142.142.379.237.569.237a.785.785 0 0 0 .568-.237.83.83 0 0 0 0-1.186L8.06 6.922l1.138-1.138a.83.83 0 0 0 0-1.185.83.83 0 0 0-1.185 0L6.874 5.736 5.736 4.6a.83.83 0 0 0-1.185 0 .83.83 0 0 0 0 1.185L5.69 6.922 4.551 8.059a.83.83 0 0 0 0 1.186z"/></g></g></g></svg>