<svg xmlns="http://www.w3.org/2000/svg" width="45" height="45" viewBox="0 0 45 45"><g><g opacity=".6"><g opacity=".6"><path fill="#fff" d="M19.989 36.428a1.073 1.073 0 1 0 .1 2.143h4.822a1.071 1.071 0 1 0 0-2.143h-4.822a1.072 1.072 0 0 0-.1 0zm-2.143-4.286a1.073 1.073 0 1 0 .1 2.143h9.108a1.071 1.071 0 1 0 0-2.143h-9.108a1.072 1.072 0 0 0-.1 0zM22.5 8.571c4.753 0 8.571 3.793 8.571 8.488 0 2.927-.862 4.043-1.925 5.474-.93 1.252-1.998 2.825-2.26 5.324h-3.315v-8.22c0-1.117-2.142-1.326-2.142 0v8.22h-3.315c-.262-2.5-1.33-4.072-2.26-5.324-1.063-1.43-1.925-2.547-1.925-5.474 0-4.695 3.818-8.488 8.571-8.488zm0-2.143c-5.901 0-10.714 4.768-10.714 10.63 0 3.41 1.28 5.294 2.36 6.747 1.08 1.453 1.925 2.45 1.925 5.123 0 .592.48 1.071 1.072 1.071h10.714c.592 0 1.071-.48 1.072-1.07 0-2.673.845-3.67 1.925-5.124 1.08-1.453 2.36-3.336 2.36-6.746 0-5.863-4.813-10.631-10.714-10.631zm0-4.286c11.256 0 20.357 9.102 20.357 20.357 0 11.256-9.101 20.358-20.357 20.358a20.24 20.24 0 0 1-11.97-3.901 1.072 1.072 0 0 0-1.088-.1l-6.16 2.862 2.862-6.16c.168-.354.13-.772-.1-1.089A20.24 20.24 0 0 1 2.143 22.5c0-11.255 9.101-20.357 20.357-20.357zM22.5 0C10.086 0 0 10.086 0 22.5c0 4.712 1.489 9.058 3.968 12.673L.1 43.476a1.072 1.072 0 0 0 1.423 1.423l8.304-3.867c3.613 2.472 7.969 3.967 12.673 3.967C34.914 45 45 34.913 45 22.5 45 10.086 34.914 0 22.5 0z"/></g></g></g></svg>