<?xml version="1.0" encoding="utf-8"?>
<!-- Generator: Adobe Illustrator 24.0.1, SVG Export Plug-In . SVG Version: 6.00 Build 0)  -->
<svg version="1.1" id="Layer_1" xmlns="http://www.w3.org/2000/svg" xmlns:xlink="http://www.w3.org/1999/xlink" x="0px" y="0px"
	 viewBox="0 0 24 24" style="enable-background:new 0 0 24 24;" xml:space="preserve">
<style type="text/css">
	.st0{fill:#707070;}
</style>
<title>trash can</title>
<g>
	<path class="st0" d="M17.1,24H6.9c-1.6,0-2.9-1.2-3-2.8L2.9,8.1l2-0.1l0.9,13.1c0,0.5,0.5,0.9,1,0.9h10.3c0.5,0,1-0.4,1-0.9
		l0.9-13.1l2,0.1l-0.9,13.1C20,22.8,18.7,24,17.1,24z"/>
	<rect y="4" class="st0" width="24" height="2"/>
	<path class="st0" d="M17,6h-2V2H9v4H7V2c0-1.1,0.9-2,2-2h6c1.1,0,2,0.9,2,2V6z"/>
</g>
</svg>
